<svg width="251" height="231" viewBox="0 0 251 231" fill="none" xmlns="http://www.w3.org/2000/svg">
<path d="M72.5132 0.173249C65.5607 0.800828 59.0527 3.8617 54.1354 8.8167C50.4431 12.509 48.0375 16.8168 46.4151 22.5511C45.8276 24.621 45.7997 25.0966 45.7158 49.7681L45.6318 74.8593L82.9189 74.8034L120.206 74.7194V0.0333872L97.5484 0.00542177C85.1008 -0.0225505 73.8279 0.0613596 72.5132 0.173249ZM93.4645 11.3901C95.2547 11.6419 95.8421 11.6139 96.1778 11.3342C96.5414 11.0265 97.4365 11.8097 102.444 16.8168L108.29 22.663L107.758 23.2504C107.087 23.9497 107.059 24.3134 107.59 24.7609C107.898 25.0127 108.122 25.0127 108.57 24.7329C109.101 24.3973 109.297 24.5092 110.751 25.9917L112.374 27.5861L109.716 30.2435L107.059 32.9008L105.409 31.2505C103.982 29.8239 103.786 29.5162 104.094 29.1526C104.402 28.7889 104.402 28.6211 104.122 28.2854C103.674 27.7539 103.311 27.7539 102.667 28.3414C102.164 28.7889 102.08 28.733 100.765 27.4462L99.3666 26.0756L97.7163 27.698C96.0659 29.3204 95.8701 29.4043 94.8072 28.6491C94.3876 28.3134 93.4365 29.1805 86.4434 36.1736C78.6392 44.0059 78.5552 44.0898 79.0867 44.6492C79.5902 45.2087 79.5902 45.2366 78.4434 46.4115C77.8 47.0828 77.2685 47.7262 77.2685 47.866C77.2685 48.2297 66.3034 59.1948 65.9397 59.1948C65.7719 59.1948 64.3453 57.8801 62.7229 56.2577L59.8138 53.3206L65.3803 47.7262C68.4572 44.6492 71.0866 42.1317 71.2265 42.1317C71.3943 42.1317 72.0377 41.6002 72.709 40.9569C73.8279 39.8659 73.9398 39.81 74.6111 40.1736C75.3384 40.5653 75.4223 40.4813 83.2266 32.6771C90.7791 25.1246 91.0589 24.7889 90.6113 24.2854C89.884 23.4742 90.0239 23.0546 91.5344 21.5721C92.3176 20.8168 92.933 20.0616 92.933 19.8937C92.933 19.7259 92.3736 19.0266 91.6743 18.3552L90.4155 17.1245L91.8141 15.6979C92.5694 14.9147 93.2127 14.1314 93.2127 13.9636C93.2127 13.6559 90.6672 12.6489 89.1008 12.3412C87.8141 12.0895 87.926 11.4181 89.2407 11.2783C89.8001 11.2223 90.4714 11.1664 90.7232 11.1384C91.6412 11.1667 92.5567 11.2508 93.4645 11.3901Z" fill="#D1B227"/>
<path d="M131.674 1.06876C131.591 1.26457 131.563 17.9081 131.591 38.0761L131.674 74.7198H205.521L205.605 50.8035C205.661 24.2019 205.689 24.5935 203.815 19.5305C200.43 10.4954 193.186 4.14571 183.199 1.51631C180.934 0.900923 180.542 0.900923 156.346 0.817006C136.43 0.733089 131.786 0.78904 131.674 1.06876ZM174.025 19.8941C176.794 21.5165 179.143 22.8312 179.227 22.8312C179.283 22.8312 179.367 21.7962 179.423 20.5095L179.507 18.2158L183.899 18.1319L188.318 18.048L188.374 23.1389L188.458 28.2019L192.794 30.7194C195.172 32.09 197.242 33.3208 197.353 33.4607C197.577 33.6565 194.864 38.7475 194.193 39.4468C194.081 39.5587 188.346 36.4258 181.465 32.4537C174.584 28.5096 168.822 25.2648 168.626 25.2648C168.458 25.2648 162.724 28.5096 155.898 32.4537C145.968 38.188 143.395 39.5586 143.143 39.2789C142.22 38.2999 139.898 33.8523 140.122 33.5166C140.374 33.097 168.15 16.985 168.626 16.957C168.794 16.957 171.227 18.2717 174.025 19.8941ZM179.423 34.16C185.158 37.3209 189.857 39.9503 189.913 40.0062C189.969 40.0622 188.179 44.3699 185.969 49.5727L181.941 59.0553L180.514 59.1393L179.088 59.2232V55.363C179.088 53.2371 178.948 50.9993 178.78 50.3839C177.857 47.0552 173.633 46.1042 171.619 48.7615C170.864 49.7685 170.836 49.8804 170.696 54.412L170.556 59.0553L162.975 59.1393L155.423 59.1952L151.339 49.6846L147.255 40.1461L147.982 39.6705C149.968 38.3838 168.094 28.4536 168.542 28.4536C168.822 28.4257 173.717 30.9991 179.423 34.16Z" fill="#D1B227"/>
<path d="M158.724 51.2771L158.808 54.8575L162.388 54.9415L165.941 55.0254V47.7246H158.64L158.724 51.2771Z" fill="#D1B227"/>
<path d="M45.6602 108.397C45.6602 134.663 45.6602 134.579 47.4504 139.614C50.5833 148.397 58.2477 155.39 67.1709 157.656C71.1429 158.663 75.0311 158.803 97.8285 158.719L119.647 158.635L119.731 121.628L119.787 84.6484H45.6602V108.397ZM103.787 99.3339C105.521 99.8654 106.947 101.04 107.982 102.802C108.654 103.949 108.738 104.369 108.738 106.607C108.738 108.509 108.598 109.348 108.206 110.103C107.417 111.54 106.245 112.731 104.822 113.544C103.703 114.159 103.563 114.159 85.5487 114.243C64.961 114.327 65.2967 114.355 63.2547 112.313C62.0519 111.11 61.0729 109.264 61.0449 108.229C61.0449 107.53 60.2337 107.194 58.919 107.362L58.1078 107.446L58.0239 114.355L57.968 121.292H71.1709C78.4437 121.292 84.5417 121.404 84.7095 121.516C85.0452 121.74 85.2689 125.88 85.5487 137.74L85.7445 145.097L84.0941 145.013L82.4437 144.929L82.3598 139.222C82.3319 136.034 82.4158 133.404 82.5556 133.208C82.6955 133.041 82.8913 130.719 83.0032 128.061L83.227 123.25H56.2896V105.628H60.961L61.1288 104.621C61.3526 103.25 62.8352 101.012 64.038 100.285C66.2198 98.9143 66.024 98.9423 84.7095 98.9143C99.8145 98.9143 102.556 98.9703 103.787 99.3339Z" fill="#D1B227"/>
<path d="M130.976 121.991V159.362L155.955 159.279L180.906 159.195L183.703 158.439C186.864 157.572 191.34 155.474 193.634 153.74C197.043 151.124 199.928 147.888 202.137 144.201C203.144 142.411 204.487 138.691 205.13 135.838C205.606 133.6 205.662 131.95 205.662 109.04V84.6484H130.976V121.991ZM183.116 100.201C183.48 100.341 183.116 100.872 181.466 102.579C178.752 105.432 178.724 105.823 181.074 108.285C182.137 109.404 183.088 110.131 183.619 110.243C184.403 110.439 184.654 110.271 186.613 108.313C187.787 107.138 188.906 106.187 189.102 106.187C189.689 106.187 189.522 109.572 188.85 111.39C188.095 113.404 186.333 115.25 184.766 115.67C183.591 115.977 181.605 115.754 180.515 115.138C180.123 114.942 178.221 116.705 170.277 124.649L160.542 134.383L161.018 135.53C161.577 136.957 161.605 138.971 161.046 140.006C160.347 141.348 158.416 142.803 156.486 143.39C154.556 143.978 152.095 144.118 151.815 143.67C151.703 143.502 152.598 142.383 153.745 141.18C156.402 138.467 156.458 138.104 154.416 135.922C153.605 135.055 152.514 134.187 152.011 133.964C150.836 133.46 150.137 133.824 147.899 136.09C146.976 137.041 146.165 137.796 146.053 137.796C145.689 137.796 145.577 135.95 145.857 134.439C146.332 131.81 147.759 129.6 149.549 128.649C150.64 128.089 152.654 128.117 154.053 128.677L155.144 129.152L164.934 119.362L174.696 109.6L174.221 108.453C173.661 107.026 173.633 105.012 174.165 104.005C174.612 103.194 175.759 102.047 176.85 101.348C178.305 100.425 181.969 99.7535 183.116 100.201Z" fill="#D1B227"/>
<path d="M77.2686 173.435C75.3105 173.882 74.3594 174.386 72.5972 175.952C71.667 176.802 70.9158 177.829 70.3874 178.973L69.5762 180.736V202.274L70.3874 203.897C71.3664 205.827 73.6881 208.092 75.5063 208.932C77.4084 209.799 81.3245 209.799 83.2267 208.932C85.0449 208.092 87.3666 205.827 88.3456 203.897L89.1568 202.274V180.736L88.2337 178.861C86.1638 174.666 81.6882 172.428 77.2686 173.435ZM81.3805 179.756C83.0309 180.763 83.0588 180.959 83.1707 191.085C83.2826 199.952 83.2546 200.372 82.6952 201.407C81.2966 204.092 77.4923 204.204 76.0937 201.575C75.6462 200.68 75.5902 199.785 75.5902 191.225C75.5902 182.33 75.6182 181.798 76.1497 180.931C77.1567 179.281 79.6742 178.694 81.3805 179.756Z" fill="#D1B227"/>
<path d="M196.151 173.435C194.193 173.882 193.242 174.386 191.48 175.952C190.549 176.802 189.798 177.829 189.27 178.973L188.458 180.736V202.274L189.242 203.841C190.165 205.715 192.542 208.092 194.389 208.932C196.291 209.799 200.207 209.799 202.109 208.932C204.067 208.036 206.277 205.799 207.228 203.729L208.039 201.994V180.736L207.116 178.861C205.046 174.666 200.571 172.428 196.151 173.435ZM200.067 179.617C200.607 179.95 201.065 180.399 201.41 180.931C201.941 181.798 201.969 182.414 202.053 191.085C202.165 199.925 202.137 200.372 201.578 201.407C200.179 204.092 196.375 204.204 194.976 201.575C194.528 200.68 194.473 199.785 194.473 191.253C194.473 182.274 194.501 181.882 195.06 180.987C195.394 180.441 195.842 179.973 196.375 179.617C197.354 179.085 199.06 179.085 200.067 179.617Z" fill="#D1B227"/>
<path d="M169.129 173.77C168.129 174.231 167.19 174.813 166.332 175.504C162.612 178.497 161.633 183.504 163.787 188.259C164.794 190.469 166.528 191.952 171.004 194.469C176.346 197.462 177.157 198.469 176.122 200.959C175.815 201.658 175.255 202.469 174.864 202.749C174.287 203.143 173.62 203.383 172.925 203.446C172.23 203.51 171.53 203.395 170.892 203.113C169.437 202.413 168.934 201.49 168.738 199.057L168.598 196.959H162.724V199.476C162.752 202.777 163.619 204.847 165.913 206.945C168.178 209.015 169.465 209.518 172.514 209.546C174.668 209.546 175.255 209.434 176.57 208.819C178.864 207.728 180.346 206.301 181.381 204.147C182.248 202.413 182.304 202.078 182.304 199.476C182.304 197.07 182.22 196.511 181.633 195.42C180.598 193.434 178.584 191.756 174.724 189.686C172.766 188.623 170.808 187.448 170.332 187.056C168.038 185.126 168.262 180.875 170.696 179.616C172.542 178.665 174.948 179.364 175.843 181.098C176.067 181.518 176.318 183.14 176.43 184.735L176.654 187.588H182.5L182.388 184.147C182.304 181.07 182.22 180.567 181.493 178.972C180.458 176.763 178.304 174.721 176.15 173.909C174.304 173.21 170.892 173.154 169.129 173.77Z" fill="#D1B227"/>
<path d="M17.1281 178.664C17.1281 181.489 17.0442 189.517 16.9603 196.454L16.7925 209.126H23.0023L23.0583 202.608L23.1422 196.119L26.359 195.951C28.7087 195.839 29.9115 195.643 30.8346 195.223C37.436 192.258 39.3102 181.489 34.1073 176.314C31.9255 174.132 30.6388 173.797 23.366 173.657L17.1281 173.545V178.664ZM29.4639 180.51C31.7017 182.412 31.7017 186.496 29.436 188.762L28.373 189.825H23.0023V179.755H25.7716C28.373 179.755 28.5968 179.811 29.4639 180.51Z" fill="#D1B227"/>
<path d="M43.1423 178.693C43.1423 181.518 43.0864 189.518 42.9745 196.455L42.8066 209.126H49.0165V194.021H51.3941C54.1634 194.021 55.0305 194.357 56.2054 195.895L56.9886 196.902L57.0725 203.028L57.1564 209.126H63.3663L63.1705 202.665C62.9467 195.7 62.8068 194.944 61.2684 192.539L60.4012 191.196L61.1285 190.441C61.7084 189.729 62.2145 188.961 62.639 188.147C63.3383 186.749 63.4222 186.329 63.4222 183.811C63.4222 181.294 63.3383 180.846 62.611 179.392C61.2124 176.511 58.4991 174.497 55.1984 173.881C54.3872 173.741 51.3102 173.602 48.4291 173.602H43.1423V178.693ZM55.2823 180.147C55.7765 180.367 56.2194 180.687 56.5829 181.088C56.9464 181.489 57.2225 181.961 57.3936 182.474C57.5646 182.987 57.6269 183.53 57.5764 184.069C57.526 184.607 57.3639 185.129 57.1005 185.602C56.1215 187.336 54.7228 187.923 51.6459 187.811L49.1564 187.728L49.0724 183.728L48.9885 179.755H51.6739C53.3242 179.755 54.6949 179.895 55.2823 180.147Z" fill="#D1B227"/>
<path d="M96.2056 173.795C96.0937 173.879 96.0098 181.879 96.0098 191.558V209.124H102.164L102.22 196.061L102.304 182.998L104.821 186.691C106.22 188.705 107.394 190.383 107.478 190.383C107.562 190.383 108.737 188.76 110.108 186.746C111.478 184.76 112.709 183.194 112.821 183.278C112.933 183.334 113.045 187.39 113.045 192.285C113.045 197.152 113.073 202.942 113.073 205.124V209.124H118.947L118.891 191.418L118.807 173.739L115.758 173.655C113.744 173.599 112.597 173.683 112.346 173.907C112.122 174.103 111.003 175.613 109.828 177.264C108.681 178.942 107.618 180.313 107.478 180.313C107.339 180.313 106.387 179.082 105.353 177.572C102.415 173.32 102.835 173.599 99.3664 173.599C97.7161 173.599 96.2895 173.683 96.2056 173.795Z" fill="#D1B227"/>
<path d="M130.836 173.881C130.668 174.133 129.997 177.573 128.738 184.65C128.598 185.405 127.983 188.874 127.339 192.343C126.724 195.811 125.829 200.762 125.381 203.392C124.906 205.993 124.486 208.371 124.43 208.622C124.318 209.07 124.598 209.126 127.339 209.126H130.36L130.556 207.643C130.892 205.014 130.584 205.21 134.472 205.21C138.36 205.21 138.053 205.014 138.388 207.643L138.584 209.126H141.661C144.43 209.126 144.71 209.07 144.57 208.622C144.486 208.371 144.039 205.937 143.591 203.252C140.626 186.077 138.5 174.077 138.36 173.853C138.137 173.489 131.06 173.517 130.836 173.881ZM135.843 191.643C136.402 195.475 136.85 198.916 136.85 199.252C136.85 199.867 136.738 199.895 134.472 199.895C132.178 199.895 132.095 199.867 132.095 199.252C132.095 198.916 132.598 195.559 133.213 191.783C133.829 188.007 134.332 184.734 134.332 184.51C134.332 184.287 134.416 184.231 134.584 184.37C134.696 184.538 135.283 187.783 135.843 191.643Z" fill="#D1B227"/>
<path d="M150.752 173.768C150.64 173.88 150.556 181.88 150.556 191.559V209.125H156.71L156.654 191.419L156.57 173.74L153.745 173.657C152.207 173.629 150.864 173.657 150.752 173.768Z" fill="#D1B227"/>
<path d="M215.088 173.77C214.976 173.882 214.892 181.882 214.892 191.56V209.127H220.794L220.626 199.952C220.487 193.574 220.515 190.889 220.71 191.085C220.878 191.225 222.64 194.889 224.654 199.197C226.668 203.505 228.543 207.477 228.85 208.008L229.382 208.987L231.62 209.071L233.885 209.155L233.969 204.875C234.025 202.526 233.997 194.553 233.913 187.169L233.773 173.742L231.032 173.658L228.291 173.574L228.375 183.392C228.431 188.763 228.375 193.183 228.291 193.183C228.207 193.183 226.864 190.19 225.298 186.525C223.731 182.889 221.857 178.497 221.102 176.819L219.731 173.742L217.521 173.658C216.291 173.63 215.2 173.658 215.088 173.77Z" fill="#D1B227"/>
<path d="M63.1983 221.601C62.7507 222.049 63.0025 222.832 63.5899 222.832C64.0095 222.832 64.1493 222.692 64.0654 222.217C63.9815 221.601 63.5339 221.293 63.1983 221.601Z" fill="#D1B227"/>
<path d="M232.347 221.854C232.151 222.357 232.431 222.833 232.934 222.833C233.522 222.833 233.718 222.301 233.354 221.854C232.906 221.322 232.543 221.322 232.347 221.854Z" fill="#D1B227"/>
<path d="M0.00912821 221.881C-0.0747887 221.965 0.428713 223.811 1.15599 225.993C2.38678 229.657 2.55461 229.965 3.22594 230.049C3.92525 230.133 3.9812 229.993 5.21198 226.216C5.91129 224.063 6.4987 222.16 6.4987 222.021C6.4987 221.853 6.24695 221.713 5.93926 221.713C5.26792 221.713 5.12806 222.021 4.03714 225.629L3.22594 228.286L2.30286 225.349C1.79936 223.727 1.26788 222.244 1.10005 222.049C0.820324 221.685 0.260879 221.601 0.00912821 221.881Z" fill="#D1B227"/>
<path d="M124.038 223.252C123.87 223.644 123.591 223.951 123.423 223.951C123.283 223.951 123.143 224.147 123.143 224.371C123.143 224.595 123.255 224.791 123.395 224.791C123.535 224.791 123.675 225.798 123.758 227C123.842 228.231 124.038 229.434 124.262 229.658C124.458 229.937 125.045 230.105 125.689 230.105C126.612 230.105 126.779 230.021 126.779 229.518C126.779 229.098 126.668 228.986 126.332 229.098C125.465 229.434 125.101 228.735 125.101 226.721V224.791H125.94C127.031 224.791 127.087 224.035 126.024 223.895C125.465 223.84 125.213 223.644 125.157 223.168C125.045 222.357 124.43 222.385 124.038 223.252Z" fill="#D1B227"/>
<path d="M153.717 223.028C153.556 223.415 153.295 223.753 152.962 224.007C152.43 224.426 152.43 224.482 152.878 224.65C153.269 224.818 153.353 225.21 153.353 226.86C153.353 229.433 153.801 230.161 155.255 230.049C155.955 229.993 156.29 229.825 156.29 229.545C156.295 229.495 156.288 229.444 156.269 229.397C156.25 229.35 156.22 229.308 156.182 229.275C156.143 229.243 156.098 229.219 156.048 229.208C155.999 229.196 155.948 229.197 155.899 229.21C155.087 229.377 154.752 228.65 154.752 226.72C154.752 224.874 154.78 224.818 155.507 224.734C156.514 224.622 156.654 224.007 155.675 223.895C155.115 223.839 154.864 223.643 154.808 223.168C154.696 222.44 153.969 222.328 153.717 223.028Z" fill="#D1B227"/>
<path d="M10.3588 224.148C8.79232 225.127 8.59651 228.26 9.99513 229.463C10.7784 230.162 12.2889 230.302 13.2399 229.826C14.7504 229.015 15.0301 225.938 13.7154 224.624C12.8203 223.728 11.3378 223.505 10.3588 224.148ZM12.7084 225.267C13.4357 225.91 13.4077 227.952 12.6525 228.707C12.3448 229.015 11.9812 229.267 11.8133 229.267C11.114 229.267 10.4147 228.12 10.4147 226.973C10.4147 225.127 11.5895 224.232 12.7084 225.267Z" fill="#D1B227"/>
<path d="M19.0021 224.12C17.8553 224.736 18.0231 226.079 19.3658 226.946C21.5196 228.316 21.5196 228.316 20.9882 228.876C20.5686 229.323 20.3168 229.351 19.3658 229.072C18.2748 228.792 18.2189 228.82 18.3028 229.379C18.3867 229.883 18.6105 229.995 19.7294 230.051C21.6315 230.162 22.4987 229.575 22.3868 228.232C22.3029 227.309 22.163 227.141 20.9882 226.554C20.0371 226.079 19.6455 225.715 19.6455 225.295C19.6455 224.764 19.7574 224.736 20.8763 224.848C22.3588 225.016 22.9182 224.4 21.7154 223.953C21.2836 223.758 20.8108 223.672 20.338 223.701C19.8652 223.73 19.4067 223.874 19.0021 224.12Z" fill="#D1B227"/>
<path d="M31.9538 224.036C31.4223 224.316 31.2545 224.595 31.2545 225.35C31.2545 226.134 31.4223 226.413 32.2335 226.945C34.3874 228.316 34.3874 228.316 33.8559 228.875C33.4364 229.323 33.1846 229.351 32.2335 229.071C31.1426 228.791 31.0867 228.819 31.1706 229.379C31.2545 229.882 31.4783 229.994 32.5972 230.05C34.3035 230.162 35.3105 229.574 35.3105 228.483C35.3105 227.476 35.0867 227.197 33.7161 226.497C32.8769 226.078 32.5133 225.714 32.5133 225.295C32.5133 224.763 32.6252 224.735 33.744 224.847C34.6671 224.959 35.0308 224.903 35.1427 224.595C35.4504 223.812 33.2126 223.392 31.9538 224.036Z" fill="#D1B227"/>
<path d="M40.4853 224.063C39.4503 224.511 38.9468 225.546 38.9468 227.196C38.9468 228.231 39.1146 228.623 39.7859 229.294C40.5132 230.049 40.765 230.133 42.0797 230.049C43.2545 229.993 43.5902 229.853 43.6461 229.434C43.758 228.986 43.6461 228.93 42.723 229.098C41.5202 229.322 40.3454 228.734 40.3454 227.867C40.3454 227.392 40.5692 227.336 42.2475 227.252L44.1217 227.168L44.0377 226.189C44.0152 225.781 43.893 225.385 43.6817 225.035C43.4705 224.685 43.1767 224.393 42.826 224.183C42.4754 223.973 42.0786 223.852 41.6705 223.831C41.2624 223.811 40.8555 223.89 40.4853 224.063ZM42.5832 225.322C43.0028 226.161 42.9748 226.189 41.6041 226.189C40.765 226.189 40.3454 226.077 40.3454 225.825C40.3454 224.79 42.0797 224.399 42.5832 225.322Z" fill="#D1B227"/>
<path d="M49.8835 224.148C49.38 224.484 49.1562 224.512 49.0723 224.288C49.0106 224.174 48.9164 224.082 48.8018 224.022C48.6872 223.962 48.5574 223.938 48.4289 223.952C47.9254 223.952 47.8975 224.176 47.8975 227.029C47.8975 229.91 47.9254 230.106 48.4569 230.106C48.9604 230.106 49.0164 229.91 49.0443 228.484C49.0723 226.162 49.324 225.547 50.415 225.015C51.422 224.484 51.7017 223.868 50.9744 223.729C50.576 223.752 50.1948 223.898 49.8835 224.148Z" fill="#D1B227"/>
<path d="M69.5481 223.95C68.5131 224.37 68.0376 225.349 68.0376 227.111C68.0376 228.482 68.1495 228.846 68.7369 229.433C69.3243 230.02 69.66 230.132 70.7509 230.048C71.7859 229.992 72.1216 229.853 72.1775 229.461C72.2614 229.041 72.0936 228.985 71.2544 229.041C69.7999 229.125 69.0446 228.202 69.2404 226.636C69.4362 225.321 70.0796 224.734 71.2544 224.845C71.8418 224.901 72.1216 224.79 72.1775 224.482C72.3174 223.783 70.7509 223.447 69.5481 223.95Z" fill="#D1B227"/>
<path d="M77.353 223.951C75.6467 224.65 75.1712 228.091 76.5978 229.406C77.6887 230.413 80.6258 230.357 80.6258 229.35C80.6258 229.014 80.402 228.958 79.5349 229.098C78.6957 229.21 78.3041 229.126 77.7167 228.678C76.4859 227.699 76.7656 227.336 78.8915 227.252L80.7657 227.168L80.7377 226.105C80.7296 225.518 80.5336 224.949 80.1782 224.482C79.5349 223.867 78.1922 223.587 77.353 223.951ZM79.3391 225.406C79.7307 226.077 79.4789 226.245 78.1363 226.133C76.9894 226.049 76.9894 226.049 77.437 225.406C77.5341 225.24 77.673 225.102 77.8398 225.006C78.0067 224.91 78.1957 224.86 78.388 224.86C78.5804 224.86 78.7694 224.91 78.9362 225.006C79.1031 225.102 79.2419 225.24 79.3391 225.406Z" fill="#D1B227"/>
<path d="M85.4086 224.036C83.7862 224.876 84.01 226.33 85.9401 227.309C87.982 228.344 87.6743 229.407 85.4645 229.099C84.5135 228.96 84.2617 229.015 84.2617 229.351C84.2617 229.883 84.8491 230.106 86.3037 230.106C87.6464 230.106 87.9541 229.939 88.4296 229.071C88.9331 228.092 88.3736 227.113 86.9191 226.414C86.0799 225.994 85.6603 225.631 85.6603 225.267C85.6603 224.82 85.8282 224.764 86.975 224.848C88.4576 224.959 88.9611 224.4 87.7583 223.952C86.8072 223.589 86.2198 223.617 85.4086 224.036Z" fill="#D1B227"/>
<path d="M98.4437 224.006C96.8772 224.566 97.2129 226.356 99.087 227.307C100.402 227.978 100.653 228.314 100.178 228.873C99.8982 229.209 99.5346 229.265 98.6115 229.125C97.6604 228.985 97.4087 229.041 97.4087 229.349C97.4087 229.88 98.0241 230.104 99.4786 230.104C100.989 230.104 101.688 229.433 101.549 228.09C101.465 227.307 101.269 227.055 100.15 226.468C99.2828 226.02 98.8073 225.573 98.8073 225.265C98.8073 224.817 99.0031 224.761 100.122 224.845C101.605 224.957 102.108 224.398 100.905 223.95C100.01 223.615 99.4786 223.615 98.4437 224.006Z" fill="#D1B227"/>
<path d="M106.444 224.12C105.045 224.819 104.514 227.057 105.381 228.707C105.885 229.686 106.584 230.106 107.759 230.106C109.633 230.106 110.724 228.679 110.472 226.525C110.22 224.316 108.318 223.169 106.444 224.12ZM108.654 225.267C109.381 225.91 109.353 227.952 108.598 228.707C108.29 229.015 107.927 229.267 107.759 229.267C107.059 229.267 106.36 228.12 106.36 226.973C106.36 225.127 107.535 224.232 108.654 225.267Z" fill="#D1B227"/>
<path d="M116.094 224.064C115.646 224.288 115.311 224.371 115.311 224.204C115.311 224.064 115.059 223.952 114.751 223.952C114.22 223.952 114.192 224.148 114.192 227.029V230.106H114.891C115.563 230.106 115.591 230.05 115.591 227.98C115.591 225.574 115.898 224.791 116.793 224.791C117.884 224.791 118.108 225.323 118.108 227.784C118.108 230.106 118.108 230.106 118.835 230.106H119.563L119.451 227.448C119.395 225.574 119.255 224.679 118.947 224.399C118.304 223.756 116.961 223.588 116.094 224.064Z" fill="#D1B227"/>
<path d="M136.71 224.063C135.675 224.511 135.171 225.546 135.171 227.196C135.171 228.231 135.339 228.623 136.011 229.294C136.738 230.049 136.99 230.133 138.304 230.049C139.479 229.993 139.815 229.853 139.871 229.434C139.983 228.986 139.871 228.93 138.948 229.098C137.745 229.322 136.57 228.734 136.57 227.867C136.57 227.392 136.794 227.336 138.472 227.252L140.346 227.168L140.262 226.189C140.24 225.781 140.118 225.385 139.906 225.035C139.695 224.685 139.401 224.393 139.051 224.183C138.7 223.973 138.303 223.852 137.895 223.831C137.487 223.811 137.08 223.89 136.71 224.063ZM138.808 225.322C139.227 226.161 139.199 226.189 137.829 226.189C136.99 226.189 136.57 226.077 136.57 225.825C136.57 224.79 138.304 224.399 138.808 225.322Z" fill="#D1B227"/>
<path d="M144.486 223.868C144.234 223.952 144.123 224.875 144.123 227.057C144.123 229.854 144.179 230.106 144.654 230.106C145.102 230.106 145.186 229.798 145.325 227.868C145.493 225.434 145.801 224.791 146.808 224.791C147.731 224.791 148.039 225.574 148.039 227.98C148.039 229.91 148.095 230.106 148.598 230.106C149.13 230.106 149.158 229.91 149.158 227.476C149.158 225.434 149.046 224.735 148.71 224.399C148.373 224.059 147.934 223.837 147.46 223.766C146.986 223.696 146.502 223.781 146.081 224.008C145.493 224.344 145.269 224.371 145.074 224.092C145.012 223.997 144.922 223.924 144.816 223.884C144.711 223.844 144.595 223.838 144.486 223.868Z" fill="#D1B227"/>
<path d="M161.969 224.063C161.521 224.315 161.129 224.371 161.045 224.203C160.969 224.124 160.878 224.061 160.777 224.018C160.676 223.974 160.568 223.952 160.458 223.951C160.15 223.951 160.066 224.539 160.066 227.028C160.066 229.91 160.094 230.105 160.626 230.105C161.129 230.105 161.185 229.91 161.185 228.455C161.185 226.329 161.521 225.434 162.5 225.014C163.367 224.623 163.731 224.231 163.535 223.895C163.339 223.56 162.808 223.616 161.969 224.063Z" fill="#D1B227"/>
<path d="M168.011 223.951C167.032 224.343 166.5 225.35 166.5 226.804C166.5 229.126 167.368 230.105 169.438 230.105C170.668 230.105 171.256 229.853 171.256 229.35C171.256 228.986 171.032 228.958 170.137 229.098C169.158 229.238 168.906 229.182 168.319 228.594C167.228 227.503 167.424 227.308 169.605 227.308H171.619L171.452 226.161C171.381 225.552 171.149 224.972 170.78 224.482C170.165 223.867 168.822 223.587 168.011 223.951ZM169.969 225.238C170.277 226.049 170.137 226.189 169.018 226.189C168.291 226.189 167.899 226.049 167.899 225.825C167.899 224.874 169.633 224.371 169.969 225.238Z" fill="#D1B227"/>
<path d="M190.389 223.953C189.046 224.484 188.319 226.582 188.878 228.26C189.298 229.519 190.109 230.106 191.452 230.106C192.962 230.106 193.941 229.183 194.109 227.505C194.417 224.764 192.627 223.057 190.389 223.953ZM192.347 225.239C192.627 225.519 192.795 226.162 192.795 227.03C192.795 228.12 192.683 228.484 192.179 228.82C191.368 229.379 191.228 229.379 190.557 228.708C189.494 227.645 190.081 224.792 191.396 224.792C191.756 224.822 192.094 224.981 192.347 225.239Z" fill="#D1B227"/>
<path d="M198.584 224.006C197.018 224.566 197.354 226.356 199.228 227.307C200.542 227.978 200.794 228.314 200.319 228.873C200.039 229.209 199.675 229.265 198.752 229.125C197.801 228.985 197.549 229.041 197.549 229.349C197.549 229.88 198.165 230.104 199.619 230.104C201.13 230.104 201.829 229.433 201.689 228.09C201.605 227.307 201.409 227.055 200.291 226.468C199.423 226.02 198.948 225.573 198.948 225.265C198.948 224.817 199.144 224.761 200.263 224.845C201.745 224.957 202.249 224.398 201.046 223.95C200.151 223.615 199.619 223.615 198.584 224.006Z" fill="#D1B227"/>
<path d="M211.34 223.868C211.088 223.952 210.976 224.875 210.976 227.056V230.105H211.675C212.347 230.105 212.375 230.05 212.375 227.98C212.375 225.686 212.682 224.791 213.438 224.791C214.389 224.791 214.612 225.406 214.612 227.784C214.612 230.077 214.612 230.105 215.312 230.105C216.011 230.105 216.011 230.077 216.011 227.896C216.011 225.518 216.347 224.791 217.438 224.791C218.193 224.791 218.529 225.826 218.529 228.175C218.529 229.91 218.585 230.105 219.088 230.105C219.62 230.105 219.647 229.91 219.647 227.476C219.647 225.434 219.536 224.735 219.2 224.399C218.529 223.7 217.522 223.588 216.571 224.063C215.759 224.455 215.619 224.455 215.004 224.035C214.417 223.672 214.109 223.644 213.298 223.896C212.738 224.063 212.123 224.119 211.983 223.98C211.891 223.915 211.785 223.872 211.674 223.852C211.563 223.833 211.449 223.838 211.34 223.868Z" fill="#D1B227"/>
<path d="M224.682 223.926C223.535 224.261 223.787 224.961 225.046 224.849C227.032 224.653 227.675 226.024 225.745 226.331C223.955 226.611 223.284 227.142 223.284 228.289C223.284 228.793 223.479 229.436 223.731 229.66C224.235 230.191 225.577 230.247 226.417 229.8C226.836 229.576 227.032 229.576 227.2 229.828C227.282 229.929 227.394 230 227.521 230.03C227.647 230.061 227.78 230.049 227.899 229.996C228.319 229.856 228.375 229.492 228.263 227.31C228.179 225.548 228.011 224.653 227.731 224.345C227.228 223.842 225.661 223.618 224.682 223.926ZM226.92 227.534C226.92 228.373 226.081 229.296 225.438 229.212C224.514 229.073 224.431 227.674 225.298 227.338C226.333 226.919 226.92 226.975 226.92 227.534Z" fill="#D1B227"/>
<path d="M239.732 224.063C239.284 224.287 238.948 224.371 238.948 224.203C238.948 224.063 238.697 223.951 238.389 223.951C237.858 223.951 237.83 224.147 237.83 227.056C237.83 230.105 237.83 230.133 238.473 230.049C239.032 229.965 239.088 229.798 239.228 227.728C239.396 225.182 239.564 224.79 240.487 224.79C241.438 224.79 241.746 225.546 241.746 228.007C241.746 230.049 241.774 230.133 242.389 230.049C242.949 229.965 243.004 229.798 243.088 228.231C243.2 225.881 242.781 224.399 241.886 224.007C240.962 223.588 240.655 223.588 239.732 224.063Z" fill="#D1B227"/>
<path d="M247.62 224.034C246.194 224.762 246.529 226.384 248.319 227.251C250.361 228.23 249.886 229.713 247.732 229.041C246.809 228.762 246.753 228.79 246.837 229.349C246.921 229.881 247.117 229.964 248.375 230.048C249.55 230.104 249.942 230.02 250.389 229.573C251.564 228.398 251.061 227.391 248.739 226.104C247.508 225.433 247.788 224.929 249.41 224.985C250.473 225.013 250.697 224.929 250.697 224.51C250.697 224.174 250.417 223.95 249.83 223.838C248.627 223.615 248.431 223.615 247.62 224.034Z" fill="#D1B227"/>
<path d="M54.0513 224.147C54.0792 224.287 54.5548 225.63 55.1142 227.168C56.0373 229.685 56.2331 229.965 56.8485 229.965C57.4639 229.965 57.6597 229.685 58.5828 227.168C59.1702 225.63 59.6457 224.287 59.6457 224.175C59.6457 224.035 59.338 223.951 58.9744 223.951C58.387 223.951 58.2471 224.203 57.6877 226.189C57.324 227.392 56.9604 228.343 56.8485 228.287C56.7646 228.231 56.373 227.224 56.0093 226.077C55.4499 224.231 55.2541 223.951 54.6946 223.951C54.331 223.951 54.0513 224.035 54.0513 224.147Z" fill="#D1B227"/>
<path d="M63.0024 227.028C63.0024 229.909 63.0304 230.105 63.5619 230.105C64.0934 230.105 64.1213 229.909 64.1213 227.028C64.1213 224.147 64.0934 223.951 63.5619 223.951C63.0304 223.951 63.0024 224.147 63.0024 227.028Z" fill="#D1B227"/>
<path d="M180.207 224.149C180.207 224.26 180.655 225.659 181.214 227.253C182.193 229.939 182.305 230.135 182.948 230.051C183.592 229.967 183.787 229.631 184.739 227.03C185.326 225.407 185.801 224.065 185.801 224.009C185.582 223.956 185.355 223.937 185.13 223.953C184.543 223.953 184.375 224.204 183.843 225.827C183.508 226.89 183.172 227.925 183.088 228.149C183.004 228.372 182.613 227.589 182.193 226.33C181.578 224.54 181.298 224.065 180.822 224.009C180.487 223.953 180.207 224.009 180.207 224.149Z" fill="#D1B227"/>
<path d="M232.235 227.056C232.235 230.105 232.235 230.133 232.879 230.049C233.466 229.965 233.494 229.825 233.578 226.944L233.662 223.951H232.235V227.056Z" fill="#D1B227"/>
</svg>
