<svg width="330" height="210" viewBox="0 0 330 210" fill="none" xmlns="http://www.w3.org/2000/svg">
<rect x="19" y="25" width="310" height="184" rx="15" fill="white" stroke="#D1B227" stroke-width="2"/>
<path d="M163.844 55C159.651 55 157.555 53.3776 157.555 50.1328C157.555 49.3724 157.651 48.6172 157.844 47.8672L161.094 47.3516C160.781 48.0495 160.625 48.875 160.625 49.8281C160.625 50.8333 160.896 51.5521 161.438 51.9844C161.979 52.4167 162.878 52.6328 164.133 52.6328H164.789V47.5469C165.888 47.3438 167.115 47.2422 168.469 47.2422C169.891 47.2422 170.906 47.5651 171.516 48.2109C172.042 48.7734 172.305 49.6432 172.305 50.8203V53.0781H169.398V51.0938C169.398 50.5052 169.333 50.1172 169.203 49.9297C169.068 49.7161 168.773 49.6094 168.32 49.6094C168.107 49.6094 167.898 49.625 167.695 49.6562V55H163.844ZM166.148 57.3984C166.148 57.7943 166.018 58.1302 165.758 58.4062C165.492 58.6823 165.169 58.8203 164.789 58.8203C164.398 58.8203 164.07 58.6823 163.805 58.4062C163.544 58.1302 163.414 57.7943 163.414 57.3984C163.414 57.013 163.544 56.6823 163.805 56.4062C164.07 56.1302 164.398 55.9922 164.789 55.9922C165.169 55.9922 165.492 56.1302 165.758 56.4062C166.018 56.6823 166.148 57.013 166.148 57.3984ZM163.078 57.3984C163.078 57.7943 162.945 58.1302 162.68 58.4062C162.414 58.6823 162.086 58.8203 161.695 58.8203C161.315 58.8203 160.995 58.6823 160.734 58.4062C160.469 58.1302 160.336 57.7943 160.336 57.3984C160.336 57.013 160.469 56.6823 160.734 56.4062C160.995 56.1302 161.315 55.9922 161.695 55.9922C162.086 55.9922 162.414 56.1302 162.68 56.4062C162.945 56.6823 163.078 57.013 163.078 57.3984ZM173.164 59C172.846 59 172.552 58.9844 172.281 58.9531L172.438 56.5859C172.682 56.6172 172.966 56.6328 173.289 56.6328C173.68 56.6328 173.961 56.5312 174.133 56.3281C174.326 56.1042 174.422 55.7083 174.422 55.1406V47.4766H177.469V52.6328H178.742V55H177.469V55.0625C177.469 57.6875 176.034 59 173.164 59ZM178.5 52.6328H179.094C179.464 52.6328 179.755 52.6745 179.969 52.7578C179.927 52.5651 179.906 52.401 179.906 52.2656C179.906 51.4844 180.177 50.8438 180.719 50.3438C181.307 49.8021 182.115 49.5312 183.141 49.5312C184.224 49.5312 185.034 49.8464 185.57 50.4766C186.018 51.013 186.242 51.7266 186.242 52.6172V52.6328H187.266V52.6172C187.266 50.0339 185.896 48.7422 183.156 48.7422C182.042 48.7422 180.891 48.9505 179.703 49.3672L179.43 47.2422C180.758 46.7943 182.112 46.5703 183.492 46.5703C187.799 46.5703 190.013 48.5911 190.133 52.6328H191.031V55H178.5V52.6328ZM183.875 52.5078C183.875 51.7161 183.555 51.3203 182.914 51.3203C182.466 51.3203 182.242 51.5286 182.242 51.9453C182.242 52.4661 182.612 52.7266 183.352 52.7266H183.875V52.5078ZM190.781 52.6328H191.727C192.174 52.6328 192.474 52.526 192.625 52.3125C192.781 52.0885 192.859 51.6302 192.859 50.9375V48.4375H195.898V51.4453C195.898 51.987 195.969 52.3516 196.109 52.5391C196.219 52.6849 196.406 52.7578 196.672 52.7578C196.969 52.7578 197.174 52.651 197.289 52.4375C197.388 52.2448 197.438 51.9193 197.438 51.4609V47.7969H200.32V51.6875C200.32 52.0469 200.391 52.2891 200.531 52.4141C200.703 52.5599 201.047 52.6328 201.562 52.6328H201.852C201.893 52.1068 201.914 51.6094 201.914 51.1406C201.914 49.8385 201.797 48.474 201.562 47.0469L204.523 46.6797C204.815 48.0703 204.961 49.5052 204.961 50.9844C204.961 52.4479 204.896 53.7865 204.766 55H200.922C199.667 55 198.836 54.7161 198.43 54.1484C198.034 54.7995 197.24 55.125 196.047 55.125C194.839 55.125 194.086 54.7734 193.789 54.0703C193.482 54.6901 192.784 55 191.695 55H190.781V52.6328ZM198.766 43.8281C198.417 43.8281 198.122 43.7031 197.883 43.4531C197.648 43.2083 197.531 42.9089 197.531 42.5547C197.531 42.1953 197.648 41.8932 197.883 41.6484C198.122 41.3984 198.417 41.2734 198.766 41.2734C199.115 41.2734 199.409 41.3984 199.648 41.6484C199.883 41.8932 200 42.1953 200 42.5547C200 42.9089 199.883 43.2083 199.648 43.4531C199.409 43.7031 199.115 43.8281 198.766 43.8281ZM200.32 46.6328C199.93 46.6328 199.602 46.4922 199.336 46.2109C199.07 45.9349 198.938 45.6016 198.938 45.2109C198.938 44.8203 199.07 44.4896 199.336 44.2188C199.602 43.9375 199.93 43.7969 200.32 43.7969C200.701 43.7969 201.023 43.9375 201.289 44.2188C201.549 44.4896 201.68 44.8203 201.68 45.2109C201.68 45.6016 201.549 45.9349 201.289 46.2109C201.023 46.4922 200.701 46.6328 200.32 46.6328ZM197.227 46.6328C196.846 46.6328 196.523 46.4922 196.258 46.2109C195.997 45.9349 195.867 45.6016 195.867 45.2109C195.867 44.8203 195.997 44.4896 196.258 44.2188C196.523 43.9375 196.846 43.7969 197.227 43.7969C197.617 43.7969 197.945 43.9375 198.211 44.2188C198.471 44.4896 198.602 44.8203 198.602 45.2109C198.602 45.6016 198.471 45.9349 198.211 46.2109C197.945 46.4922 197.617 46.6328 197.227 46.6328ZM211.375 57.5781H208.43L214.047 42.8906H216.977L211.375 57.5781ZM226.828 55C222.635 55 220.539 53.3776 220.539 50.1328C220.539 49.3724 220.635 48.6172 220.828 47.8672L224.078 47.3516C223.766 48.0495 223.609 48.875 223.609 49.8281C223.609 50.8333 223.88 51.5521 224.422 51.9844C224.964 52.4167 225.862 52.6328 227.117 52.6328H227.773V47.5469C228.872 47.3438 230.099 47.2422 231.453 47.2422C232.875 47.2422 233.891 47.5651 234.5 48.2109C235.026 48.7734 235.289 49.6432 235.289 50.8203V53.0781H232.383V51.0938C232.383 50.5052 232.318 50.1172 232.188 49.9297C232.052 49.7161 231.758 49.6094 231.305 49.6094C231.091 49.6094 230.883 49.625 230.68 49.6562V55H226.828ZM229.133 57.3984C229.133 57.7943 229.003 58.1302 228.742 58.4062C228.477 58.6823 228.154 58.8203 227.773 58.8203C227.383 58.8203 227.055 58.6823 226.789 58.4062C226.529 58.1302 226.398 57.7943 226.398 57.3984C226.398 57.013 226.529 56.6823 226.789 56.4062C227.055 56.1302 227.383 55.9922 227.773 55.9922C228.154 55.9922 228.477 56.1302 228.742 56.4062C229.003 56.6823 229.133 57.013 229.133 57.3984ZM226.062 57.3984C226.062 57.7943 225.93 58.1302 225.664 58.4062C225.398 58.6823 225.07 58.8203 224.68 58.8203C224.299 58.8203 223.979 58.6823 223.719 58.4062C223.453 58.1302 223.32 57.7943 223.32 57.3984C223.32 57.013 223.453 56.6823 223.719 56.4062C223.979 56.1302 224.299 55.9922 224.68 55.9922C225.07 55.9922 225.398 56.1302 225.664 56.4062C225.93 56.6823 226.062 57.013 226.062 57.3984ZM239.203 59C238.432 59 237.654 58.9479 236.867 58.8438L237.023 56.4219C237.758 56.5625 238.562 56.6328 239.438 56.6328C240.995 56.6328 241.773 56.0938 241.773 55.0156V55H241.039C238.117 55 236.656 53.7786 236.656 51.3359C236.656 50.1745 237.005 49.2266 237.703 48.4922C238.5 47.6589 239.656 47.2422 241.172 47.2422C242.568 47.2422 243.75 47.4271 244.719 47.7969V52.6328H246V55H244.703C244.62 56.2656 244.13 57.2396 243.234 57.9219C242.297 58.6406 240.953 59 239.203 59ZM241.773 49.7969C241.539 49.6719 241.242 49.6094 240.883 49.6094C240.497 49.6094 240.193 49.7552 239.969 50.0469C239.766 50.3177 239.664 50.6562 239.664 51.0625C239.664 52.1094 240.214 52.6328 241.312 52.6328H241.773V49.7969ZM245.766 52.6328H247.844V47.4766H250.883V52.6328H252.164V55H245.766V52.6328ZM249.367 46.6797C248.966 46.6797 248.625 46.5391 248.344 46.2578C248.062 45.9818 247.922 45.6432 247.922 45.2422C247.922 44.8411 248.062 44.5 248.344 44.2188C248.625 43.9375 248.966 43.7969 249.367 43.7969C249.768 43.7969 250.107 43.9375 250.383 44.2188C250.664 44.5 250.805 44.8411 250.805 45.2422C250.805 45.6432 250.664 45.9818 250.383 46.2578C250.107 46.5391 249.768 46.6797 249.367 46.6797ZM251.922 52.6328H252.867C253.315 52.6328 253.615 52.526 253.766 52.3125C253.922 52.0885 254 51.6302 254 50.9375V48.4375H257.039V51.4453C257.039 51.987 257.109 52.3516 257.25 52.5391C257.359 52.6849 257.547 52.7578 257.812 52.7578C258.109 52.7578 258.315 52.651 258.43 52.4375C258.529 52.2448 258.578 51.9193 258.578 51.4609V47.7969H261.461V51.6875C261.461 52.0469 261.531 52.2891 261.672 52.4141C261.844 52.5599 262.188 52.6328 262.703 52.6328H262.992C263.034 52.1068 263.055 51.6094 263.055 51.1406C263.055 49.8385 262.938 48.474 262.703 47.0469L265.664 46.6797C265.956 48.0703 266.102 49.5052 266.102 50.9844C266.102 52.4479 266.036 53.7865 265.906 55H262.062C260.807 55 259.977 54.7161 259.57 54.1484C259.174 54.7995 258.38 55.125 257.188 55.125C255.979 55.125 255.227 54.7734 254.93 54.0703C254.622 54.6901 253.924 55 252.836 55H251.922V52.6328Z" fill="#808080"/>
<path d="M286 41C280.49 41 276 45.49 276 51C276 56.51 280.49 61 286 61C291.51 61 296 56.51 296 51C296 45.49 291.51 41 286 41ZM290.78 48.7L285.11 54.37C284.97 54.51 284.78 54.59 284.58 54.59C284.38 54.59 284.19 54.51 284.05 54.37L281.22 51.54C280.93 51.25 280.93 50.77 281.22 50.48C281.51 50.19 281.99 50.19 282.28 50.48L284.58 52.78L289.72 47.64C290.01 47.35 290.49 47.35 290.78 47.64C291.07 47.93 291.07 48.4 290.78 48.7Z" fill="#808080"/>
<path d="M43.268 11.4196C45.4586 10.0902 48.3155 10.8557 49.548 13.1023L51.1426 16.0092C52.0302 17.6273 53.6702 18.6923 55.5095 18.8451L58.8136 19.1195C61.3673 19.3316 63.2286 21.6302 62.9051 24.1722L62.4866 27.4612C62.2536 29.292 62.9544 31.1176 64.3526 32.3222L66.8644 34.4864C68.8057 36.1589 68.9605 39.1126 67.2047 40.979L64.9328 43.3938C63.6682 44.738 63.1621 46.6269 63.5852 48.4233L64.3452 51.6505C64.9326 54.1447 63.3217 56.6253 60.8042 57.1032L57.5469 57.7215C55.7337 58.0656 54.214 59.2963 53.5004 60.9983L52.2183 64.0559C51.2275 66.419 48.4662 67.479 46.1486 66.3858L43.1499 64.9714C41.4807 64.1841 39.5279 64.2864 37.9502 65.2439L35.1158 66.964C32.9251 68.2935 30.0682 67.5279 28.8358 65.2813L27.2412 62.3744C26.3535 60.7564 24.7135 59.6913 22.8743 59.5386L19.5701 59.2641C17.0165 59.0521 15.1551 56.7535 15.4786 54.2115L15.8971 50.9225C16.1301 49.0917 15.4293 47.2661 14.0312 46.0615L11.5193 43.8973C9.57806 42.2247 9.42326 39.271 11.1791 37.4047L13.4509 34.9899C14.7155 33.6457 15.2216 31.7568 14.7986 29.9604L14.0385 26.7331C13.4511 24.2389 15.062 21.7584 17.5795 21.2805L20.8369 20.6622C22.6501 20.318 24.1698 19.0874 24.8834 17.3854L26.1654 14.3278C27.1563 11.9646 29.9175 10.9047 32.2351 11.9978L35.2338 13.4123C36.903 14.1996 38.8558 14.0972 40.4336 13.1397L43.268 11.4196Z" fill="#808080" stroke="#808080"/>
<mask id="path-5-outside-1_1_32678" maskUnits="userSpaceOnUse" x="20.8321" y="27.6073" width="35.0507" height="23.737" fill="black">
<rect fill="white" x="20.8321" y="27.6073" width="35.0507" height="23.737"/>
<path d="M31.0649 44.7687L27.5464 43.8259L26.6155 29.6043L29.8604 30.4738L30.2537 38.2123C30.2996 39.148 30.3054 40.019 30.2713 40.8254L30.3185 40.8381C30.6871 40.1415 31.1618 39.3386 31.7424 38.4292L35.888 32.0889L38.9631 32.9128L31.0649 44.7687ZM36.5737 46.2448L40.0667 33.2085L43.0758 34.0148L39.5828 47.0511L36.5737 46.2448ZM53.3505 41.1355C52.9798 42.519 52.2349 43.5259 51.1157 44.1561C49.9041 44.829 48.4525 44.9388 46.7609 44.4855C46.4905 44.4131 46.2532 44.3428 46.0491 44.2746L44.9218 48.4816L41.9127 47.6754L45.4058 34.6391C46.6631 34.9019 47.9741 35.2161 49.3388 35.5818C52.7597 36.4984 54.097 38.3497 53.3505 41.1355ZM50.1764 40.5681C50.5268 39.26 49.9789 38.4122 48.5325 38.0247C48.2873 37.959 48.034 37.8979 47.7728 37.8414L46.729 41.7371C46.9607 41.8532 47.2464 41.9567 47.586 42.0477C48.9506 42.4133 49.8141 41.9201 50.1764 40.5681Z"/>
</mask>
<path d="M31.0649 44.7687L27.5464 43.8259L26.6155 29.6043L29.8604 30.4738L30.2537 38.2123C30.2996 39.148 30.3054 40.019 30.2713 40.8254L30.3185 40.8381C30.6871 40.1415 31.1618 39.3386 31.7424 38.4292L35.888 32.0889L38.9631 32.9128L31.0649 44.7687ZM36.5737 46.2448L40.0667 33.2085L43.0758 34.0148L39.5828 47.0511L36.5737 46.2448ZM53.3505 41.1355C52.9798 42.519 52.2349 43.5259 51.1157 44.1561C49.9041 44.829 48.4525 44.9388 46.7609 44.4855C46.4905 44.4131 46.2532 44.3428 46.0491 44.2746L44.9218 48.4816L41.9127 47.6754L45.4058 34.6391C46.6631 34.9019 47.9741 35.2161 49.3388 35.5818C52.7597 36.4984 54.097 38.3497 53.3505 41.1355ZM50.1764 40.5681C50.5268 39.26 49.9789 38.4122 48.5325 38.0247C48.2873 37.959 48.034 37.8979 47.7728 37.8414L46.729 41.7371C46.9607 41.8532 47.2464 41.9567 47.586 42.0477C48.9506 42.4133 49.8141 41.9201 50.1764 40.5681Z" fill="white"/>
<path d="M31.0649 44.7687L30.8061 45.7346L31.4993 45.9204L31.8971 45.3231L31.0649 44.7687ZM27.5464 43.8259L26.5486 43.8912L26.5954 44.6064L27.2876 44.7919L27.5464 43.8259ZM26.6155 29.6043L26.8743 28.6384L25.5265 28.2772L25.6176 29.6696L26.6155 29.6043ZM29.8604 30.4738L30.8591 30.423L30.8222 29.6962L30.1192 29.5078L29.8604 30.4738ZM30.2537 38.2123L31.2525 38.1633L31.2524 38.1615L30.2537 38.2123ZM30.2713 40.8254L29.2722 40.7832L29.2384 41.5839L30.0125 41.7914L30.2713 40.8254ZM30.3185 40.8381L30.0597 41.804L30.8296 42.0103L31.2024 41.3058L30.3185 40.8381ZM31.7424 38.4292L30.9054 37.8819L30.8996 37.891L31.7424 38.4292ZM35.888 32.0889L36.1468 31.1229L35.4473 30.9355L35.051 31.5416L35.888 32.0889ZM38.9631 32.9128L39.7953 33.4672L40.5679 32.3076L39.2219 31.9469L38.9631 32.9128ZM31.3237 43.8028L27.8053 42.86L27.2876 44.7919L30.8061 45.7346L31.3237 43.8028ZM28.5443 43.7606L27.6133 29.539L25.6176 29.6696L26.5486 43.8912L28.5443 43.7606ZM26.3567 30.5702L29.6016 31.4397L30.1192 29.5078L26.8743 28.6384L26.3567 30.5702ZM28.8617 30.5245L29.255 38.2631L31.2524 38.1615L30.8591 30.423L28.8617 30.5245ZM29.2549 38.2612C29.2995 39.1712 29.3049 40.0115 29.2722 40.7832L31.2705 40.8677C31.306 40.0265 31.2996 39.1247 31.2525 38.1633L29.2549 38.2612ZM30.0125 41.7914L30.0597 41.804L30.5773 39.8721L30.5302 39.8595L30.0125 41.7914ZM31.2024 41.3058C31.5546 40.6402 32.0143 39.8615 32.5853 38.9674L30.8996 37.891C30.3092 38.8156 29.8196 39.6428 29.4347 40.3703L31.2024 41.3058ZM32.5794 38.9765L36.725 32.6361L35.051 31.5416L30.9055 37.882L32.5794 38.9765ZM35.6292 33.0548L38.7043 33.8788L39.2219 31.9469L36.1468 31.1229L35.6292 33.0548ZM38.1309 32.3584L30.2327 44.2143L31.8971 45.3231L39.7953 33.4672L38.1309 32.3584ZM36.5737 46.2448L35.6078 45.986L35.349 46.9519L36.3149 47.2107L36.5737 46.2448ZM40.0667 33.2085L40.3256 32.2426L39.3596 31.9838L39.1008 32.9497L40.0667 33.2085ZM43.0758 34.0148L44.0418 34.2736L44.3006 33.3077L43.3347 33.0489L43.0758 34.0148ZM39.5828 47.0511L39.324 48.017L40.2899 48.2758L40.5487 47.3099L39.5828 47.0511ZM37.5396 46.5036L41.0327 33.4674L39.1008 32.9497L35.6078 45.986L37.5396 46.5036ZM39.8079 34.1745L42.817 34.9808L43.3347 33.0489L40.3256 32.2426L39.8079 34.1745ZM42.1099 33.756L38.6169 46.7922L40.5487 47.3099L44.0418 34.2736L42.1099 33.756ZM39.8416 46.0851L36.8325 45.2788L36.3149 47.2107L39.324 48.017L39.8416 46.0851ZM51.1157 44.1561L51.6012 45.0303L51.6063 45.0274L51.1157 44.1561ZM46.0491 44.2746L46.3658 43.3261L45.3581 42.9895L45.0831 44.0158L46.0491 44.2746ZM44.9218 48.4816L44.663 49.4476L45.6289 49.7064L45.8877 48.7405L44.9218 48.4816ZM41.9127 47.6754L40.9468 47.4165L40.688 48.3825L41.6539 48.6413L41.9127 47.6754ZM45.4058 34.6391L45.6103 33.6603L44.6846 33.4668L44.4398 34.3803L45.4058 34.6391ZM47.7728 37.8414L47.9843 36.864L47.0534 36.6626L46.8069 37.5825L47.7728 37.8414ZM46.729 41.7371L45.763 41.4783L45.5519 42.2662L46.2813 42.6313L46.729 41.7371ZM52.3846 40.8767C52.0747 42.0332 51.4818 42.8023 50.625 43.2847L51.6063 45.0274C52.9879 44.2494 53.885 43.0048 54.3165 41.3943L52.3846 40.8767ZM50.6301 43.2819C49.7011 43.7978 48.5299 43.9243 47.0197 43.5196L46.5021 45.4515C48.3751 45.9533 50.1071 45.8601 51.6012 45.0303L50.6301 43.2819ZM47.0197 43.5196C46.7634 43.4509 46.5462 43.3863 46.3658 43.3261L45.7323 45.2231C45.9603 45.2992 46.2176 45.3752 46.5021 45.4515L47.0197 43.5196ZM45.0831 44.0158L43.9559 48.2228L45.8877 48.7405L47.015 44.5334L45.0831 44.0158ZM45.1806 47.5157L42.1715 46.7094L41.6539 48.6413L44.663 49.4476L45.1806 47.5157ZM42.8786 47.9342L46.3717 34.8979L44.4398 34.3803L40.9468 47.4165L42.8786 47.9342ZM45.2012 35.618C46.4387 35.8766 47.7315 36.1864 49.0799 36.5477L49.5976 34.6158C48.2167 34.2458 46.8876 33.9272 45.6103 33.6603L45.2012 35.618ZM49.0799 36.5477C50.6842 36.9775 51.6195 37.5825 52.0968 38.2432C52.5445 38.8629 52.7023 39.6911 52.3846 40.8767L54.3165 41.3943C54.7453 39.7941 54.6077 38.3037 53.7181 37.0721C52.8581 35.8816 51.4143 35.1026 49.5976 34.6158L49.0799 36.5477ZM51.1423 40.8269C51.3645 39.9975 51.343 39.1431 50.8681 38.4084C50.4073 37.6953 49.6408 37.2864 48.7913 37.0588L48.2737 38.9906C48.8707 39.1506 49.1013 39.3593 49.1884 39.494C49.2615 39.6071 49.3387 39.8306 49.2104 40.3092L51.1423 40.8269ZM48.7913 37.0588C48.5296 36.9886 48.2606 36.9237 47.9843 36.864L47.5614 38.8187C47.8075 38.872 48.0449 38.9293 48.2737 38.9906L48.7913 37.0588ZM46.8069 37.5825L45.763 41.4783L47.6949 41.996L48.7388 38.1002L46.8069 37.5825ZM46.2813 42.6313C46.5905 42.7861 46.9438 42.9108 47.3272 43.0136L47.8448 41.0817C47.5491 41.0025 47.331 40.9202 47.1766 40.8429L46.2813 42.6313ZM47.3272 43.0136C48.1562 43.2357 49.0109 43.2443 49.753 42.8203C50.4973 42.3952 50.9206 41.6541 51.1423 40.8269L49.2104 40.3092C49.0698 40.8341 48.8803 41.0156 48.7611 41.0837C48.6398 41.1529 48.3805 41.2253 47.8448 41.0817L47.3272 43.0136Z" fill="#808080" mask="url(#path-5-outside-1_1_32678)"/>
<path d="M50.2861 87.1455C50.2861 87.4189 50.1882 87.6536 49.9922 87.8496C49.7962 88.041 49.5615 88.1367 49.2881 88.1367C49.0192 88.1367 48.7868 88.041 48.5908 87.8496C48.3949 87.6536 48.2969 87.4189 48.2969 87.1455C48.2969 86.8721 48.3949 86.6374 48.5908 86.4414C48.7868 86.25 49.0192 86.1543 49.2881 86.1543C49.5615 86.1543 49.7962 86.25 49.9922 86.4414C50.1882 86.6374 50.2861 86.8721 50.2861 87.1455ZM56.7803 88C55.0075 88 53.7132 87.6423 52.8975 86.9268C52.1455 86.2614 51.7695 85.252 51.7695 83.8984C51.7695 83.0645 51.904 82.3079 52.1729 81.6289L53.8271 81.3486C53.4808 82.0732 53.3076 82.8617 53.3076 83.7139C53.3076 84.7848 53.5674 85.5527 54.0869 86.0176C54.6475 86.528 55.6022 86.7832 56.9512 86.7832H60.1162V78.1289H61.6543V86.7832H63.1377V88H56.7803ZM55.2559 81.3486C55.6204 81.3486 55.9189 81.3714 56.1514 81.417C55.9281 81.3213 55.8164 81.1162 55.8164 80.8018C55.8164 80.3962 55.9622 80.0612 56.2539 79.7969C56.5911 79.487 57.0788 79.332 57.7168 79.332C57.8672 79.332 58.1292 79.3503 58.5029 79.3867L58.3662 80.3027C58.0654 80.2617 57.8307 80.2412 57.6621 80.2412C57.179 80.2412 56.9375 80.4144 56.9375 80.7607C56.9375 81.1527 57.2816 81.3486 57.9697 81.3486H58.7422V82.2578H55.2559V81.3486ZM62.9258 86.7832H64.9287V81.417H66.4668V88H62.9258V86.7832ZM66.5488 80.2275C66.321 80.2275 66.1273 80.1478 65.9678 79.9883C65.8083 79.8288 65.7285 79.6283 65.7285 79.3867C65.7285 79.1589 65.8083 78.9629 65.9678 78.7988C66.1273 78.6348 66.321 78.5527 66.5488 78.5527C66.7812 78.5527 66.9772 78.6348 67.1367 78.7988C67.2962 78.9629 67.376 79.1589 67.376 79.3867C67.376 79.6191 67.2962 79.8174 67.1367 79.9814C66.9772 80.1455 66.7812 80.2275 66.5488 80.2275ZM64.3682 80.2275C64.1403 80.2275 63.9489 80.1478 63.7939 79.9883C63.6344 79.8242 63.5547 79.6237 63.5547 79.3867C63.5547 79.1589 63.6344 78.9629 63.7939 78.7988C63.9535 78.6348 64.1449 78.5527 64.3682 78.5527C64.6051 78.5527 64.8011 78.6348 64.9561 78.7988C65.1156 78.9583 65.1953 79.1543 65.1953 79.3867C65.1953 79.6237 65.1156 79.8219 64.9561 79.9814C64.8011 80.1455 64.6051 80.2275 64.3682 80.2275ZM68.7363 78.5527H70.2744V86.7832H71.7578V88H68.7363V78.5527ZM67.6289 76.9258C68.0072 76.9258 68.3193 76.9486 68.5654 76.9941C68.3148 76.8711 68.1895 76.6478 68.1895 76.3242C68.1895 75.9596 68.3353 75.652 68.627 75.4014C68.9688 75.1097 69.4564 74.9639 70.0898 74.9639C70.3815 74.9639 70.6436 74.9889 70.876 75.0391L70.7393 75.873C70.3656 75.8275 70.1263 75.8047 70.0215 75.8047C69.5293 75.8047 69.2832 75.9824 69.2832 76.3379C69.2832 76.7298 69.6318 76.9258 70.3291 76.9258H71.1152V77.7803H67.6289V76.9258ZM80.7676 88C79.929 88 79.3138 87.9294 78.9219 87.7881C78.5117 87.6331 78.2064 87.3529 78.0059 86.9473C77.6777 87.7129 76.9736 88.0957 75.8936 88.0957C74.9001 88.0957 74.2894 87.7129 74.0615 86.9473C73.7972 87.6491 73.1706 88 72.1816 88H71.5527V86.7832H72.1953C72.6921 86.7832 73.0407 86.6556 73.2412 86.4004C73.4508 86.1315 73.5557 85.6484 73.5557 84.9512V82.2578H75.0938V84.8213C75.0938 85.5915 75.1507 86.1087 75.2646 86.373C75.4105 86.7194 75.7181 86.8926 76.1875 86.8926C77.0534 86.8926 77.4863 86.2067 77.4863 84.835V81.6973H78.9561V85.2588C78.9561 85.8923 79.0928 86.3092 79.3662 86.5098C79.6077 86.6921 80.0977 86.7832 80.8359 86.7832H81.2529C81.3213 86.0951 81.3555 85.4844 81.3555 84.9512C81.3555 83.5931 81.2096 82.3285 80.918 81.1572L82.415 80.9043C82.734 82.1393 82.8936 83.4495 82.8936 84.835C82.8936 85.473 82.8662 86.1224 82.8115 86.7832H84.2812V88H80.7676ZM77.0693 80.2275C76.8369 80.2275 76.641 80.1478 76.4814 79.9883C76.3219 79.8288 76.2422 79.6283 76.2422 79.3867C76.2422 79.1589 76.3219 78.9629 76.4814 78.7988C76.641 78.6348 76.8369 78.5527 77.0693 78.5527C77.2972 78.5527 77.4932 78.6348 77.6572 78.7988C77.8167 78.9629 77.8965 79.1589 77.8965 79.3867C77.8965 79.6191 77.8167 79.8174 77.6572 79.9814C77.4932 80.1455 77.2972 80.2275 77.0693 80.2275ZM79.25 80.2275C79.0221 80.2275 78.8285 80.1478 78.6689 79.9883C78.5094 79.8288 78.4297 79.6283 78.4297 79.3867C78.4297 79.1589 78.5094 78.9629 78.6689 78.7988C78.8285 78.6348 79.0221 78.5527 79.25 78.5527C79.4824 78.5527 79.6761 78.6348 79.8311 78.7988C79.986 78.9583 80.0635 79.1543 80.0635 79.3867C80.0635 79.6237 79.986 79.8219 79.8311 79.9814C79.6761 80.1455 79.4824 80.2275 79.25 80.2275ZM78.1494 78.4229C77.9307 78.4229 77.7461 78.3454 77.5957 78.1904C77.4499 78.04 77.377 77.8509 77.377 77.623C77.377 77.4089 77.4499 77.2243 77.5957 77.0693C77.7461 76.9189 77.9307 76.8438 78.1494 76.8438C78.3682 76.8438 78.555 76.9189 78.71 77.0693C78.8558 77.2197 78.9287 77.4043 78.9287 77.623C78.9287 77.8509 78.8558 78.04 78.71 78.1904C78.5596 78.3454 78.3727 78.4229 78.1494 78.4229ZM84.0625 86.7832H86.0654V81.417H87.6035V86.7832H89.0732V88H84.0625V86.7832ZM86.8379 80.0635C86.5964 80.0635 86.3936 79.9814 86.2295 79.8174C86.0654 79.6533 85.9834 79.4505 85.9834 79.209C85.9834 78.9766 86.0654 78.7783 86.2295 78.6143C86.3936 78.4502 86.5964 78.3682 86.8379 78.3682C87.0749 78.3682 87.2754 78.4479 87.4395 78.6074C87.6035 78.7715 87.6855 78.972 87.6855 79.209C87.6855 79.446 87.6035 79.6465 87.4395 79.8105C87.2754 79.9792 87.0749 80.0635 86.8379 80.0635ZM88.8613 88V86.7832H89.8252C90.1533 86.7832 90.4199 86.8105 90.625 86.8652C90.0098 86.4505 89.7021 85.7191 89.7021 84.6709C89.7021 83.7093 90.0007 82.9141 90.5977 82.2852C91.2493 81.597 92.1357 81.2529 93.2568 81.2529C95.3122 81.2529 96.3398 82.3079 96.3398 84.418V88H88.8613ZM94.8359 84.6572C94.8359 83.1989 94.2731 82.4697 93.1475 82.4697C92.5596 82.4697 92.0924 82.668 91.7461 83.0645C91.4089 83.4473 91.2402 83.9577 91.2402 84.5957C91.2402 86.054 92.0241 86.7832 93.5918 86.7832H94.8359V84.6572ZM101.426 78.1289H102.964V86.7832H104.447V88H101.426V78.1289ZM104.242 86.7832H105.657C105.881 86.7832 106.081 86.8014 106.259 86.8379C105.949 86.5872 105.794 86.2272 105.794 85.7578C105.794 85.056 106.031 84.4932 106.505 84.0693C106.979 83.6364 107.619 83.4199 108.426 83.4199C109.287 83.4199 109.934 83.7002 110.367 84.2607C110.755 84.762 110.948 85.4525 110.948 86.332V86.7832H112.541V86.5576C112.541 84.9489 112.215 83.7754 111.563 83.0371C110.912 82.3034 109.875 81.9365 108.453 81.9365C107.473 81.9365 106.48 82.1051 105.473 82.4424L105.322 81.3213C106.421 80.9749 107.53 80.8018 108.651 80.8018C110.42 80.8018 111.743 81.2507 112.623 82.1484C113.562 83.1009 114.031 84.5889 114.031 86.6123V86.7832H115.173V88H104.242V86.7832ZM109.649 86.3457C109.649 85.0697 109.205 84.4316 108.316 84.4316C107.505 84.4316 107.1 84.8099 107.1 85.5664C107.1 86.4049 107.585 86.8242 108.556 86.8242H109.649V86.3457ZM114.961 86.7832H120.573C120.632 86.3639 120.662 85.9378 120.662 85.5049C120.662 84.4977 120.448 83.764 120.02 83.3037C119.559 82.8115 118.803 82.5654 117.75 82.5654C117.153 82.5654 116.624 82.6042 116.164 82.6816V81.4785C116.752 81.3919 117.326 81.3486 117.887 81.3486C119.404 81.3486 120.509 81.6927 121.202 82.3809C121.858 83.0371 122.187 84.0511 122.187 85.4229C122.187 86.2432 122.111 87.1022 121.961 88H114.961V86.7832ZM118.276 90.9531C118.039 90.9531 117.839 90.8711 117.675 90.707C117.506 90.5384 117.422 90.3356 117.422 90.0986C117.422 89.8617 117.506 89.6611 117.675 89.4971C117.839 89.3285 118.039 89.2441 118.276 89.2441C118.518 89.2441 118.721 89.3285 118.885 89.4971C119.049 89.6611 119.131 89.8617 119.131 90.0986C119.131 90.3356 119.049 90.5384 118.885 90.707C118.721 90.8711 118.518 90.9531 118.276 90.9531ZM124.312 78.1289H125.851V86.7832H127.334V88H124.312V78.1289ZM127.129 86.7832H129.132V81.417H130.67V86.7832H132.03V88H127.129V86.7832ZM130.752 80.2275C130.524 80.2275 130.33 80.1478 130.171 79.9883C130.011 79.8288 129.932 79.6283 129.932 79.3867C129.932 79.1589 130.011 78.9629 130.171 78.7988C130.33 78.6348 130.524 78.5527 130.752 78.5527C130.984 78.5527 131.18 78.6348 131.34 78.7988C131.499 78.9629 131.579 79.1589 131.579 79.3867C131.579 79.6191 131.499 79.8174 131.34 79.9814C131.18 80.1455 130.984 80.2275 130.752 80.2275ZM128.571 80.2275C128.343 80.2275 128.152 80.1478 127.997 79.9883C127.838 79.8242 127.758 79.6237 127.758 79.3867C127.758 79.1589 127.838 78.9629 127.997 78.7988C128.157 78.6348 128.348 78.5527 128.571 78.5527C128.808 78.5527 129.004 78.6348 129.159 78.7988C129.319 78.9583 129.398 79.1543 129.398 79.3867C129.398 79.6237 129.319 79.8219 129.159 79.9814C129.004 80.1455 128.808 80.2275 128.571 80.2275ZM131.818 86.7832H137.431C137.49 86.3639 137.52 85.9378 137.52 85.5049C137.52 84.4977 137.305 83.764 136.877 83.3037C136.417 82.8115 135.66 82.5654 134.607 82.5654C134.01 82.5654 133.482 82.6042 133.021 82.6816V81.4785C133.609 81.3919 134.184 81.3486 134.744 81.3486C136.262 81.3486 137.367 81.6927 138.06 82.3809C138.716 83.0371 139.044 84.0511 139.044 85.4229C139.044 85.9105 139.021 86.3639 138.976 86.7832H140.179V88H131.818V86.7832ZM139.967 86.7832H141.97V81.417H143.508V88H139.967V86.7832ZM143.59 80.2275C143.362 80.2275 143.168 80.1478 143.009 79.9883C142.849 79.8288 142.77 79.6283 142.77 79.3867C142.77 79.1589 142.849 78.9629 143.009 78.7988C143.168 78.6348 143.362 78.5527 143.59 78.5527C143.822 78.5527 144.018 78.6348 144.178 78.7988C144.337 78.9629 144.417 79.1589 144.417 79.3867C144.417 79.6191 144.337 79.8174 144.178 79.9814C144.018 80.1455 143.822 80.2275 143.59 80.2275ZM141.409 80.2275C141.181 80.2275 140.99 80.1478 140.835 79.9883C140.675 79.8242 140.596 79.6237 140.596 79.3867C140.596 79.1589 140.675 78.9629 140.835 78.7988C140.994 78.6348 141.186 78.5527 141.409 78.5527C141.646 78.5527 141.842 78.6348 141.997 78.7988C142.157 78.9583 142.236 79.1543 142.236 79.3867C142.236 79.6237 142.157 79.8219 141.997 79.9814C141.842 80.1455 141.646 80.2275 141.409 80.2275ZM153.194 88C151.422 88 150.127 87.6423 149.312 86.9268C148.56 86.2614 148.184 85.252 148.184 83.8984C148.184 83.0645 148.318 82.3079 148.587 81.6289L150.241 81.3486C149.895 82.0732 149.722 82.8617 149.722 83.7139C149.722 84.7848 149.981 85.5527 150.501 86.0176C151.062 86.528 152.016 86.7832 153.365 86.7832H154.459V81.5195C155.298 81.3418 156.184 81.2529 157.118 81.2529C158.262 81.2529 159.089 81.5264 159.6 82.0732C160.064 82.5654 160.297 83.3174 160.297 84.3291V86.7832H161.596V88H158.793V84.5137C158.793 83.7708 158.659 83.2445 158.39 82.9346C158.116 82.6247 157.654 82.4697 157.002 82.4697C156.646 82.4697 156.293 82.5016 155.942 82.5654V88H153.194ZM154.821 90.085C154.821 90.3219 154.742 90.5247 154.582 90.6934C154.423 90.8574 154.227 90.9395 153.994 90.9395C153.762 90.9395 153.566 90.8574 153.406 90.6934C153.247 90.5247 153.167 90.3219 153.167 90.085C153.167 89.8571 153.247 89.6611 153.406 89.4971C153.57 89.3285 153.766 89.2441 153.994 89.2441C154.222 89.2441 154.418 89.3262 154.582 89.4902C154.742 89.6543 154.821 89.8525 154.821 90.085ZM152.634 90.085C152.634 90.3265 152.556 90.5293 152.401 90.6934C152.242 90.8574 152.044 90.9395 151.807 90.9395C151.583 90.9395 151.392 90.8574 151.232 90.6934C151.077 90.5247 151 90.3219 151 90.085C151 89.8617 151.077 89.6657 151.232 89.4971C151.396 89.3285 151.588 89.2441 151.807 89.2441C152.044 89.2441 152.242 89.3262 152.401 89.4902C152.556 89.6543 152.634 89.8525 152.634 90.085ZM161.391 86.7832H163.394V81.417H164.932V86.7832H166.292V88H161.391V86.7832ZM165.014 80.2275C164.786 80.2275 164.592 80.1478 164.433 79.9883C164.273 79.8288 164.193 79.6283 164.193 79.3867C164.193 79.1589 164.273 78.9629 164.433 78.7988C164.592 78.6348 164.786 78.5527 165.014 78.5527C165.246 78.5527 165.442 78.6348 165.602 78.7988C165.761 78.9629 165.841 79.1589 165.841 79.3867C165.841 79.6191 165.761 79.8174 165.602 79.9814C165.442 80.1455 165.246 80.2275 165.014 80.2275ZM162.833 80.2275C162.605 80.2275 162.414 80.1478 162.259 79.9883C162.099 79.8242 162.02 79.6237 162.02 79.3867C162.02 79.1589 162.099 78.9629 162.259 78.7988C162.418 78.6348 162.61 78.5527 162.833 78.5527C163.07 78.5527 163.266 78.6348 163.421 78.7988C163.58 78.9583 163.66 79.1543 163.66 79.3867C163.66 79.6237 163.58 79.8219 163.421 79.9814C163.266 80.1455 163.07 80.2275 162.833 80.2275ZM166.08 86.7832H167.939V78.1289H169.484V88H166.08V86.7832ZM172 78.1289H173.538V88H172V78.1289ZM181.851 88C179.376 88 178.139 86.9131 178.139 84.7393C178.139 83.7503 178.43 82.9391 179.014 82.3057C179.661 81.6038 180.568 81.2529 181.734 81.2529C182.801 81.2529 183.758 81.417 184.605 81.7451V86.7832H186.075V88H181.851ZM183.108 82.7637C182.698 82.5677 182.19 82.4697 181.584 82.4697C180.996 82.4697 180.529 82.6657 180.183 83.0576C179.845 83.445 179.677 83.9531 179.677 84.582C179.677 86.0495 180.461 86.7832 182.028 86.7832H183.108V82.7637ZM182.691 80.2275C182.459 80.2275 182.263 80.1478 182.104 79.9883C181.944 79.8288 181.864 79.6283 181.864 79.3867C181.864 79.1589 181.944 78.9629 182.104 78.7988C182.263 78.6348 182.459 78.5527 182.691 78.5527C182.919 78.5527 183.113 78.6348 183.272 78.7988C183.432 78.9629 183.512 79.1589 183.512 79.3867C183.512 79.6191 183.432 79.8174 183.272 79.9814C183.113 80.1455 182.919 80.2275 182.691 80.2275ZM180.504 80.2275C180.281 80.2275 180.089 80.1478 179.93 79.9883C179.77 79.8242 179.69 79.6237 179.69 79.3867C179.69 79.1589 179.77 78.9629 179.93 78.7988C180.089 78.6348 180.281 78.5527 180.504 78.5527C180.741 78.5527 180.939 78.6348 181.099 78.7988C181.254 78.9583 181.331 79.1543 181.331 79.3867C181.331 79.6237 181.254 79.8219 181.099 79.9814C180.939 80.1455 180.741 80.2275 180.504 80.2275ZM188.639 80.0635C188.397 80.0635 188.194 79.9814 188.03 79.8174C187.866 79.6533 187.784 79.4505 187.784 79.209C187.784 78.9766 187.866 78.7783 188.03 78.6143C188.194 78.4502 188.397 78.3682 188.639 78.3682C188.876 78.3682 189.076 78.4479 189.24 78.6074C189.404 78.7715 189.486 78.972 189.486 79.209C189.486 79.446 189.404 79.6465 189.24 79.8105C189.076 79.9792 188.876 80.0635 188.639 80.0635ZM185.863 86.7832H187.866V81.417H189.404V88H185.863V86.7832ZM191.811 78.1289H193.349V86.7832H194.832V88H191.811V78.1289ZM194.627 86.7832H197.354V81.417H198.899V86.7832H200.369V88H194.627V86.7832ZM198.811 90.085C198.811 90.3219 198.731 90.5247 198.571 90.6934C198.412 90.8574 198.218 90.9395 197.99 90.9395C197.758 90.9395 197.562 90.8574 197.402 90.6934C197.243 90.5247 197.163 90.3219 197.163 90.085C197.163 89.8571 197.243 89.6611 197.402 89.4971C197.562 89.3285 197.758 89.2441 197.99 89.2441C198.218 89.2441 198.412 89.3262 198.571 89.4902C198.731 89.6543 198.811 89.8525 198.811 90.085ZM196.63 90.085C196.63 90.3265 196.552 90.5293 196.397 90.6934C196.238 90.8574 196.04 90.9395 195.803 90.9395C195.579 90.9395 195.388 90.8574 195.229 90.6934C195.069 90.5247 194.989 90.3219 194.989 90.085C194.989 89.8617 195.069 89.6657 195.229 89.4971C195.388 89.3285 195.579 89.2441 195.803 89.2441C196.04 89.2441 196.238 89.3262 196.397 89.4902C196.552 89.6543 196.63 89.8525 196.63 90.085ZM200.15 86.7832H202.099V81.417H203.637V81.8818C203.637 82.7568 203.584 83.527 203.479 84.1924H203.493C203.808 83.2627 204.313 82.5335 205.011 82.0049C205.672 81.5036 206.403 81.2529 207.205 81.2529C208.13 81.2529 208.841 81.5332 209.338 82.0938C209.83 82.6497 210.076 83.429 210.076 84.4316C210.076 85.3887 209.819 86.1725 209.304 86.7832H211.067V88H200.15V86.7832ZM206.043 86.7832C207.679 86.7832 208.497 86.0358 208.497 84.541C208.497 83.1693 207.968 82.4834 206.911 82.4834C206.077 82.4834 205.341 82.9346 204.703 83.8369C204.115 84.6663 203.755 85.6484 203.623 86.7832H206.043ZM210.76 86.7832H212.619V78.1289H214.164V88H210.76V86.7832ZM216.68 78.1289H218.218V88H216.68V78.1289ZM228.54 78.1289H230.078V87.0635C230.078 89.8434 228.88 91.2334 226.482 91.2334C224.14 91.2334 222.969 89.9186 222.969 87.2891C222.969 86.4414 223.08 85.5778 223.304 84.6982L224.903 84.4043C224.639 85.3112 224.507 86.2249 224.507 87.1455C224.507 89.0596 225.213 90.0166 226.626 90.0166C227.902 90.0166 228.54 89.0732 228.54 87.1865V78.1289ZM242.007 84.6572C242.007 83.1989 241.444 82.4697 240.318 82.4697C239.73 82.4697 239.263 82.668 238.917 83.0645C238.58 83.4473 238.411 83.9577 238.411 84.5957C238.411 86.054 239.195 86.7832 240.763 86.7832H242.007V84.6572ZM232.553 88V78.1289H234.091V86.7832H235.191C235.747 86.7832 236.155 86.6419 236.415 86.3594C236.72 86.0312 236.873 85.4684 236.873 84.6709C236.873 83.7093 237.172 82.9141 237.769 82.2852C238.42 81.597 239.307 81.2529 240.428 81.2529C242.483 81.2529 243.511 82.3079 243.511 84.418V86.7832H244.81V88H240.776C239.19 88 238.126 87.5944 237.584 86.7832C237.338 87.5534 236.668 87.959 235.574 88H232.553ZM244.68 86.7832H247.127C246.252 86.3503 245.814 85.5846 245.814 84.4863C245.814 83.5612 246.106 82.8047 246.689 82.2168C247.332 81.5742 248.221 81.2529 249.355 81.2529C250.007 81.2529 250.604 81.3509 251.146 81.5469L250.866 82.7773C250.392 82.5632 249.87 82.4561 249.301 82.4561C248.717 82.4561 248.25 82.6338 247.899 82.9893C247.535 83.3493 247.353 83.8346 247.353 84.4453C247.353 85.1471 247.631 85.7031 248.187 86.1133C248.788 86.5599 249.672 86.7832 250.839 86.7832H251.96V88H244.68V86.7832ZM253.525 78.5527H255.063V88H253.525V78.5527ZM252.418 76.9258C252.796 76.9258 253.108 76.9486 253.354 76.9941C253.104 76.8711 252.979 76.6478 252.979 76.3242C252.979 75.9596 253.124 75.652 253.416 75.4014C253.758 75.1097 254.245 74.9639 254.879 74.9639C255.171 74.9639 255.433 74.9889 255.665 75.0391L255.528 75.873C255.155 75.8275 254.915 75.8047 254.811 75.8047C254.318 75.8047 254.072 75.9824 254.072 76.3379C254.072 76.7298 254.421 76.9258 255.118 76.9258H255.904V77.7803H252.418V76.9258ZM263.438 91.5957C262.13 91.5957 261.136 91.3542 260.457 90.8711C259.851 90.4427 259.548 89.873 259.548 89.1621C259.548 88.4147 259.906 87.763 260.621 87.207C261.018 86.9017 261.774 86.4893 262.891 85.9697C261.715 84.8486 260.735 84.1673 259.951 83.9258L260.081 82.8457C261.535 81.7656 262.884 81.2256 264.128 81.2256C265.062 81.2256 265.78 81.4489 266.281 81.8955C266.719 82.292 266.938 82.8092 266.938 83.4473C266.938 84.4727 266.34 85.3659 265.146 86.127C265.807 86.5645 266.484 86.7832 267.177 86.7832H268.072V88H266.979C265.853 88 264.809 87.6081 263.848 86.8242C262.818 87.3346 262.189 87.665 261.961 87.8154C261.396 88.1982 261.113 88.6016 261.113 89.0254C261.113 89.9277 261.945 90.3789 263.608 90.3789C264.328 90.3789 265.046 90.3197 265.762 90.2012L265.851 91.3633C265.026 91.5182 264.221 91.5957 263.438 91.5957ZM261.51 83.3516C262.025 83.5566 262.907 84.2197 264.155 85.3408C264.994 84.8486 265.413 84.2835 265.413 83.6455C265.413 83.2673 265.295 82.9642 265.058 82.7363C264.798 82.4857 264.431 82.3604 263.957 82.3604C263.269 82.3604 262.453 82.6908 261.51 83.3516ZM267.867 86.7832H270.595V81.417H272.14V86.7832H273.609V88H267.867V86.7832ZM272.051 90.085C272.051 90.3219 271.971 90.5247 271.812 90.6934C271.652 90.8574 271.458 90.9395 271.23 90.9395C270.998 90.9395 270.802 90.8574 270.643 90.6934C270.483 90.5247 270.403 90.3219 270.403 90.085C270.403 89.8571 270.483 89.6611 270.643 89.4971C270.802 89.3285 270.998 89.2441 271.23 89.2441C271.458 89.2441 271.652 89.3262 271.812 89.4902C271.971 89.6543 272.051 89.8525 272.051 90.085ZM269.87 90.085C269.87 90.3265 269.793 90.5293 269.638 90.6934C269.478 90.8574 269.28 90.9395 269.043 90.9395C268.82 90.9395 268.628 90.8574 268.469 90.6934C268.309 90.5247 268.229 90.3219 268.229 90.085C268.229 89.8617 268.309 89.6657 268.469 89.4971C268.628 89.3285 268.82 89.2441 269.043 89.2441C269.28 89.2441 269.478 89.3262 269.638 89.4902C269.793 89.6543 269.87 89.8525 269.87 90.085ZM278.702 88C277.116 88 276.052 87.5944 275.51 86.7832C275.25 87.5944 274.523 88 273.329 88H273.117V86.7832C273.673 86.7832 274.081 86.6419 274.341 86.3594C274.646 86.0312 274.799 85.4684 274.799 84.6709C274.799 83.7093 275.097 82.9141 275.694 82.2852C276.346 81.597 277.232 81.2529 278.354 81.2529C280.409 81.2529 281.437 82.3079 281.437 84.418V86.7832H282.735V88H278.702ZM279.933 84.6572C279.933 83.1989 279.37 82.4697 278.244 82.4697C277.656 82.4697 277.189 82.668 276.843 83.0645C276.506 83.4473 276.337 83.9577 276.337 84.5957C276.337 86.054 277.121 86.7832 278.688 86.7832H279.933V84.6572ZM282.523 86.7832H288.136C288.195 86.3639 288.225 85.9378 288.225 85.5049C288.225 84.4977 288.01 83.764 287.582 83.3037C287.122 82.8115 286.365 82.5654 285.312 82.5654C284.715 82.5654 284.187 82.6042 283.727 82.6816V81.4785C284.314 81.3919 284.889 81.3486 285.449 81.3486C286.967 81.3486 288.072 81.6927 288.765 82.3809C289.421 83.0371 289.749 84.0511 289.749 85.4229C289.749 86.2432 289.674 87.1022 289.523 88H282.523V86.7832ZM285.839 90.9531C285.602 90.9531 285.401 90.8711 285.237 90.707C285.069 90.5384 284.984 90.3356 284.984 90.0986C284.984 89.8617 285.069 89.6611 285.237 89.4971C285.401 89.3285 285.602 89.2441 285.839 89.2441C286.08 89.2441 286.283 89.3285 286.447 89.4971C286.611 89.6611 286.693 89.8617 286.693 90.0986C286.693 90.3356 286.611 90.5384 286.447 90.707C286.283 90.8711 286.08 90.9531 285.839 90.9531ZM293.994 84.6367V83.4336H297.357V84.6367H293.994ZM119.233 122.146C119.233 122.419 119.135 122.654 118.939 122.85C118.743 123.041 118.509 123.137 118.235 123.137C117.966 123.137 117.734 123.041 117.538 122.85C117.342 122.654 117.244 122.419 117.244 122.146C117.244 121.872 117.342 121.637 117.538 121.441C117.734 121.25 117.966 121.154 118.235 121.154C118.509 121.154 118.743 121.25 118.939 121.441C119.135 121.637 119.233 121.872 119.233 122.146ZM120.607 121.783H124.948C124.921 120.603 124.638 119.664 124.101 118.967C123.549 118.256 122.688 117.734 121.517 117.401L121.906 116.109C123.401 116.542 124.508 117.192 125.229 118.058C125.985 118.969 126.391 120.211 126.445 121.783H127.471V123H120.607V121.783ZM127.266 121.783H129.713C128.838 121.35 128.4 120.585 128.4 119.486C128.4 118.561 128.692 117.805 129.275 117.217C129.918 116.574 130.807 116.253 131.941 116.253C132.593 116.253 133.19 116.351 133.732 116.547L133.452 117.777C132.978 117.563 132.456 117.456 131.887 117.456C131.303 117.456 130.836 117.634 130.485 117.989C130.121 118.349 129.938 118.835 129.938 119.445C129.938 120.147 130.216 120.703 130.772 121.113C131.374 121.56 132.258 121.783 133.425 121.783H134.546V123H127.266V121.783ZM136.385 113.129H137.923V121.783H139.406V123H136.385V113.129ZM139.201 121.783H141.149V116.417H142.688V116.882C142.688 117.757 142.635 118.527 142.53 119.192H142.544C142.858 118.263 143.364 117.534 144.062 117.005C144.722 116.504 145.454 116.253 146.256 116.253C147.181 116.253 147.892 116.533 148.389 117.094C148.881 117.65 149.127 118.429 149.127 119.432C149.127 120.389 148.869 121.173 148.354 121.783H150.118V123H139.201V121.783ZM145.094 121.783C146.73 121.783 147.548 121.036 147.548 119.541C147.548 118.169 147.019 117.483 145.962 117.483C145.128 117.483 144.392 117.935 143.754 118.837C143.166 119.666 142.806 120.648 142.674 121.783H145.094ZM149.811 123V121.783H150.774C151.103 121.783 151.369 121.811 151.574 121.865C150.959 121.451 150.651 120.719 150.651 119.671C150.651 118.709 150.95 117.914 151.547 117.285C152.199 116.597 153.085 116.253 154.206 116.253C156.261 116.253 157.289 117.308 157.289 119.418V123H149.811ZM155.785 119.657C155.785 118.199 155.222 117.47 154.097 117.47C153.509 117.47 153.042 117.668 152.695 118.064C152.358 118.447 152.189 118.958 152.189 119.596C152.189 121.054 152.973 121.783 154.541 121.783H155.785V119.657ZM161.76 121.797C162.37 121.797 162.869 121.82 163.257 121.865C162.847 121.688 162.642 121.323 162.642 120.771C162.642 120.156 162.863 119.648 163.305 119.247C163.815 118.782 164.556 118.55 165.526 118.55C166.009 118.55 166.415 118.582 166.743 118.646L166.559 119.849C166.135 119.785 165.754 119.753 165.417 119.753C164.592 119.753 164.18 120.074 164.18 120.717C164.18 121.437 164.763 121.797 165.93 121.797H167.194V123H161.76V121.797ZM169.43 113.129H170.968V121.783H172.451V123H169.43V113.129ZM172.246 121.783H174.249V116.417H175.787V123H172.246V121.783ZM174.037 125.953C173.8 125.953 173.6 125.871 173.436 125.707C173.267 125.538 173.183 125.336 173.183 125.099C173.183 124.862 173.267 124.661 173.436 124.497C173.6 124.328 173.8 124.244 174.037 124.244C174.274 124.244 174.477 124.328 174.646 124.497C174.81 124.661 174.892 124.862 174.892 125.099C174.892 125.336 174.81 125.538 174.646 125.707C174.477 125.871 174.274 125.953 174.037 125.953ZM178.05 126.582C177.576 126.582 177.127 126.523 176.703 126.404L176.86 125.167C177.252 125.299 177.676 125.365 178.132 125.365C178.701 125.365 179.121 125.21 179.39 124.9C179.69 124.554 179.841 123.978 179.841 123.171V116.417H181.379V121.783H182.849V123H181.379V123.068C181.379 125.411 180.269 126.582 178.05 126.582ZM182.637 121.783H184.052C184.275 121.783 184.476 121.801 184.653 121.838C184.343 121.587 184.188 121.227 184.188 120.758C184.188 120.056 184.425 119.493 184.899 119.069C185.373 118.636 186.014 118.42 186.82 118.42C187.682 118.42 188.329 118.7 188.762 119.261C189.149 119.762 189.343 120.452 189.343 121.332V121.783H190.936V121.558C190.936 119.949 190.61 118.775 189.958 118.037C189.306 117.303 188.27 116.937 186.848 116.937C185.868 116.937 184.874 117.105 183.867 117.442L183.717 116.321C184.815 115.975 185.925 115.802 187.046 115.802C188.814 115.802 190.138 116.251 191.018 117.148C191.956 118.101 192.426 119.589 192.426 121.612V121.783H193.567V123H182.637V121.783ZM188.044 121.346C188.044 120.07 187.6 119.432 186.711 119.432C185.9 119.432 185.494 119.81 185.494 120.566C185.494 121.405 185.979 121.824 186.95 121.824H188.044V121.346ZM193.355 121.783H197.696C197.669 120.553 197.364 119.582 196.78 118.871C196.211 118.183 195.331 117.684 194.142 117.374V116.239L199.556 112.835V114.373L195.919 116.588C198.111 117.536 199.207 119.402 199.207 122.187V123H193.355V121.783ZM204.936 123.137C204.644 123.137 204.405 123.025 204.218 122.802C204.031 122.565 203.942 122.259 203.951 121.886C203.974 120.965 204.528 120.02 205.612 119.049L206.241 119.609C205.425 120.484 205.225 121.175 205.64 121.681C205.877 121.968 205.918 122.282 205.763 122.624C205.612 122.966 205.337 123.137 204.936 123.137ZM213.651 123C211.177 123 209.939 121.913 209.939 119.739C209.939 118.75 210.231 117.939 210.814 117.306C211.462 116.604 212.368 116.253 213.535 116.253C214.602 116.253 215.559 116.417 216.406 116.745V121.783H217.876V123H213.651ZM214.909 117.764C214.499 117.568 213.991 117.47 213.385 117.47C212.797 117.47 212.33 117.666 211.983 118.058C211.646 118.445 211.478 118.953 211.478 119.582C211.478 121.049 212.261 121.783 213.829 121.783H214.909V117.764ZM214.492 115.228C214.26 115.228 214.064 115.148 213.904 114.988C213.745 114.829 213.665 114.628 213.665 114.387C213.665 114.159 213.745 113.963 213.904 113.799C214.064 113.635 214.26 113.553 214.492 113.553C214.72 113.553 214.914 113.635 215.073 113.799C215.233 113.963 215.312 114.159 215.312 114.387C215.312 114.619 215.233 114.817 215.073 114.981C214.914 115.146 214.72 115.228 214.492 115.228ZM212.305 115.228C212.081 115.228 211.89 115.148 211.73 114.988C211.571 114.824 211.491 114.624 211.491 114.387C211.491 114.159 211.571 113.963 211.73 113.799C211.89 113.635 212.081 113.553 212.305 113.553C212.542 113.553 212.74 113.635 212.899 113.799C213.054 113.958 213.132 114.154 213.132 114.387C213.132 114.624 213.054 114.822 212.899 114.981C212.74 115.146 212.542 115.228 212.305 115.228ZM217.664 121.783H222.005C221.978 120.553 221.672 119.582 221.089 118.871C220.519 118.183 219.64 117.684 218.45 117.374V116.239L223.864 112.835V114.373L220.228 116.588C222.42 117.536 223.516 119.402 223.516 122.187V123H217.664V121.783ZM226.072 113.129H227.61V121.783H229.094V123H226.072V113.129ZM228.889 121.783H230.892V116.417H232.43V121.783H233.899V123H228.889V121.783ZM230.68 125.953C230.443 125.953 230.242 125.871 230.078 125.707C229.91 125.538 229.825 125.336 229.825 125.099C229.825 124.862 229.91 124.661 230.078 124.497C230.242 124.328 230.443 124.244 230.68 124.244C230.917 124.244 231.119 124.328 231.288 124.497C231.452 124.661 231.534 124.862 231.534 125.099C231.534 125.336 231.452 125.538 231.288 125.707C231.119 125.871 230.917 125.953 230.68 125.953ZM233.688 121.783H234.33C234.827 121.783 235.175 121.656 235.376 121.4C235.586 121.132 235.69 120.648 235.69 119.951V117.258H237.229V119.821C237.229 120.591 237.285 121.109 237.399 121.373C237.545 121.719 237.853 121.893 238.322 121.893C239.188 121.893 239.621 121.207 239.621 119.835V116.697H241.091V120.259C241.091 120.892 241.228 121.309 241.501 121.51C241.743 121.692 242.232 121.783 242.971 121.783H243.388C243.456 121.095 243.49 120.484 243.49 119.951C243.49 118.593 243.344 117.328 243.053 116.157L244.55 115.904C244.869 117.139 245.028 118.45 245.028 119.835C245.028 120.929 244.953 121.984 244.803 123H242.902C242.064 123 241.449 122.929 241.057 122.788C240.646 122.633 240.341 122.353 240.141 121.947C239.812 122.713 239.108 123.096 238.028 123.096C237.035 123.096 236.424 122.713 236.196 121.947C235.932 122.649 235.305 123 234.316 123H233.688V121.783ZM250.504 123.137C250.212 123.137 249.973 123.025 249.786 122.802C249.599 122.565 249.51 122.259 249.52 121.886C249.542 120.965 250.096 120.02 251.181 119.049L251.81 119.609C250.994 120.484 250.793 121.175 251.208 121.681C251.445 121.968 251.486 122.282 251.331 122.624C251.181 122.966 250.905 123.137 250.504 123.137ZM268.229 123H260.724C258.951 123 257.657 122.642 256.841 121.927C256.089 121.261 255.713 120.252 255.713 118.898C255.713 118.064 255.847 117.308 256.116 116.629L257.771 116.349C257.424 117.073 257.251 117.862 257.251 118.714C257.251 119.771 257.506 120.539 258.017 121.018C258.554 121.528 259.443 121.783 260.683 121.783H261.298C260.787 121.382 260.532 120.692 260.532 119.712C260.532 118.714 260.844 117.891 261.469 117.244C262.116 116.583 262.959 116.253 263.998 116.253C264.978 116.253 265.741 116.51 266.288 117.025C266.881 117.581 267.177 118.411 267.177 119.514C267.177 120.562 266.855 121.337 266.213 121.838C266.65 121.801 267.033 121.783 267.361 121.783H268.229V123ZM265.625 119.596C265.625 118.178 265.042 117.47 263.875 117.47C263.374 117.47 262.961 117.636 262.638 117.969C262.269 118.352 262.084 118.889 262.084 119.582C262.084 121.049 262.676 121.783 263.861 121.783C264.376 121.783 264.791 121.605 265.105 121.25C265.452 120.863 265.625 120.311 265.625 119.596ZM263.902 115.022C263.661 115.022 263.46 114.94 263.301 114.776C263.132 114.612 263.048 114.41 263.048 114.168C263.048 113.936 263.132 113.737 263.301 113.573C263.465 113.409 263.665 113.327 263.902 113.327C264.144 113.327 264.347 113.407 264.511 113.566C264.675 113.73 264.757 113.931 264.757 114.168C264.757 114.405 264.675 114.605 264.511 114.77C264.342 114.938 264.139 115.022 263.902 115.022ZM268.018 121.783H270.745V116.417H272.29V121.783H273.76V123H268.018V121.783ZM272.201 125.085C272.201 125.322 272.121 125.525 271.962 125.693C271.802 125.857 271.609 125.939 271.381 125.939C271.148 125.939 270.952 125.857 270.793 125.693C270.633 125.525 270.554 125.322 270.554 125.085C270.554 124.857 270.633 124.661 270.793 124.497C270.952 124.328 271.148 124.244 271.381 124.244C271.609 124.244 271.802 124.326 271.962 124.49C272.121 124.654 272.201 124.853 272.201 125.085ZM270.021 125.085C270.021 125.326 269.943 125.529 269.788 125.693C269.629 125.857 269.43 125.939 269.193 125.939C268.97 125.939 268.779 125.857 268.619 125.693C268.46 125.525 268.38 125.322 268.38 125.085C268.38 124.862 268.46 124.666 268.619 124.497C268.779 124.328 268.97 124.244 269.193 124.244C269.43 124.244 269.629 124.326 269.788 124.49C269.943 124.654 270.021 124.853 270.021 125.085ZM273.541 121.783H276.269V116.417H277.813V121.783H279.283V123H273.541V121.783ZM277.725 125.085C277.725 125.322 277.645 125.525 277.485 125.693C277.326 125.857 277.132 125.939 276.904 125.939C276.672 125.939 276.476 125.857 276.316 125.693C276.157 125.525 276.077 125.322 276.077 125.085C276.077 124.857 276.157 124.661 276.316 124.497C276.476 124.328 276.672 124.244 276.904 124.244C277.132 124.244 277.326 124.326 277.485 124.49C277.645 124.654 277.725 124.853 277.725 125.085ZM275.544 125.085C275.544 125.326 275.466 125.529 275.312 125.693C275.152 125.857 274.954 125.939 274.717 125.939C274.493 125.939 274.302 125.857 274.143 125.693C273.983 125.525 273.903 125.322 273.903 125.085C273.903 124.862 273.983 124.666 274.143 124.497C274.302 124.328 274.493 124.244 274.717 124.244C274.954 124.244 275.152 124.326 275.312 124.49C275.466 124.654 275.544 124.853 275.544 125.085ZM279.064 121.783H283.405C283.378 120.553 283.073 119.582 282.489 118.871C281.92 118.183 281.04 117.684 279.851 117.374V116.239L285.265 112.835V114.373L281.628 116.588C283.724 117.495 284.816 119.227 284.902 121.783H286.133V123H279.064V121.783ZM285.928 121.783H287.931V116.417H289.469V123H285.928V121.783ZM289.551 115.228C289.323 115.228 289.129 115.148 288.97 114.988C288.81 114.829 288.73 114.628 288.73 114.387C288.73 114.159 288.81 113.963 288.97 113.799C289.129 113.635 289.323 113.553 289.551 113.553C289.783 113.553 289.979 113.635 290.139 113.799C290.298 113.963 290.378 114.159 290.378 114.387C290.378 114.619 290.298 114.817 290.139 114.981C289.979 115.146 289.783 115.228 289.551 115.228ZM287.37 115.228C287.142 115.228 286.951 115.148 286.796 114.988C286.636 114.824 286.557 114.624 286.557 114.387C286.557 114.159 286.636 113.963 286.796 113.799C286.955 113.635 287.147 113.553 287.37 113.553C287.607 113.553 287.803 113.635 287.958 113.799C288.118 113.958 288.197 114.154 288.197 114.387C288.197 114.624 288.118 114.822 287.958 114.981C287.803 115.146 287.607 115.228 287.37 115.228ZM293.994 119.637V118.434H297.357V119.637H293.994ZM146.632 157.146C146.632 157.419 146.534 157.654 146.338 157.85C146.142 158.041 145.907 158.137 145.634 158.137C145.365 158.137 145.132 158.041 144.937 157.85C144.741 157.654 144.643 157.419 144.643 157.146C144.643 156.872 144.741 156.637 144.937 156.441C145.132 156.25 145.365 156.154 145.634 156.154C145.907 156.154 146.142 156.25 146.338 156.441C146.534 156.637 146.632 156.872 146.632 157.146ZM153.126 158C151.353 158 150.059 157.642 149.243 156.927C148.491 156.261 148.115 155.252 148.115 153.898C148.115 153.064 148.25 152.308 148.519 151.629L150.173 151.349C149.826 152.073 149.653 152.862 149.653 153.714C149.653 154.785 149.913 155.553 150.433 156.018C150.993 156.528 151.948 156.783 153.297 156.783H155.464V151.417H157.002V158H153.126ZM154.021 150.228C153.789 150.228 153.593 150.148 153.434 149.988C153.274 149.829 153.194 149.628 153.194 149.387C153.194 149.159 153.274 148.963 153.434 148.799C153.598 148.635 153.794 148.553 154.021 148.553C154.254 148.553 154.45 148.635 154.609 148.799C154.769 148.963 154.849 149.159 154.849 149.387C154.849 149.619 154.769 149.817 154.609 149.981C154.45 150.146 154.254 150.228 154.021 150.228ZM151.841 150.228C151.613 150.228 151.422 150.148 151.267 149.988C151.107 149.824 151.027 149.624 151.027 149.387C151.027 149.159 151.107 148.963 151.267 148.799C151.426 148.635 151.618 148.553 151.841 148.553C152.073 148.553 152.269 148.635 152.429 148.799C152.588 148.958 152.668 149.154 152.668 149.387C152.668 149.624 152.588 149.822 152.429 149.981C152.269 150.146 152.073 150.228 151.841 150.228ZM159.408 148.129H160.946V156.783H162.43V158H159.408V148.129ZM162.225 156.783H164.228V151.417H165.766V156.783H167.235V158H162.225V156.783ZM164.016 160.953C163.779 160.953 163.578 160.871 163.414 160.707C163.245 160.538 163.161 160.336 163.161 160.099C163.161 159.862 163.245 159.661 163.414 159.497C163.578 159.328 163.779 159.244 164.016 159.244C164.253 159.244 164.455 159.328 164.624 159.497C164.788 159.661 164.87 159.862 164.87 160.099C164.87 160.336 164.788 160.538 164.624 160.707C164.455 160.871 164.253 160.953 164.016 160.953ZM167.023 156.783H169.751V151.417H171.296V156.783H172.766V158H167.023V156.783ZM171.207 160.085C171.207 160.322 171.127 160.525 170.968 160.693C170.808 160.857 170.615 160.939 170.387 160.939C170.154 160.939 169.958 160.857 169.799 160.693C169.639 160.525 169.56 160.322 169.56 160.085C169.56 159.857 169.639 159.661 169.799 159.497C169.958 159.328 170.154 159.244 170.387 159.244C170.615 159.244 170.808 159.326 170.968 159.49C171.127 159.654 171.207 159.853 171.207 160.085ZM169.026 160.085C169.026 160.326 168.949 160.529 168.794 160.693C168.634 160.857 168.436 160.939 168.199 160.939C167.976 160.939 167.785 160.857 167.625 160.693C167.465 160.525 167.386 160.322 167.386 160.085C167.386 159.862 167.465 159.666 167.625 159.497C167.785 159.328 167.976 159.244 168.199 159.244C168.436 159.244 168.634 159.326 168.794 159.49C168.949 159.654 169.026 159.853 169.026 160.085ZM172.547 156.783H176.888C176.86 155.553 176.555 154.582 175.972 153.871C175.402 153.183 174.522 152.684 173.333 152.374V151.239L178.747 147.835V149.373L175.11 151.588C177.302 152.536 178.398 154.402 178.398 157.187V158H172.547V156.783ZM182.842 158V158.068C182.842 160.411 181.732 161.582 179.513 161.582C179.043 161.582 178.594 161.523 178.166 161.404L178.323 160.167C178.715 160.299 179.139 160.365 179.595 160.365C180.169 160.365 180.588 160.21 180.853 159.9C181.153 159.554 181.304 158.978 181.304 158.171V151.417H182.842V156.783H185.877V151.417H187.415V156.783H188.885V158H182.842ZM186.916 149.988C186.757 149.829 186.677 149.628 186.677 149.387C186.677 149.159 186.757 148.963 186.916 148.799C187.076 148.635 187.269 148.553 187.497 148.553C187.729 148.553 187.923 148.635 188.078 148.799C188.233 148.958 188.311 149.154 188.311 149.387C188.311 149.624 188.233 149.822 188.078 149.981C187.923 150.146 187.729 150.228 187.497 150.228C187.269 150.228 187.076 150.148 186.916 149.988ZM184.729 149.988C184.569 149.829 184.489 149.628 184.489 149.387C184.489 149.159 184.569 148.963 184.729 148.799C184.888 148.635 185.084 148.553 185.316 148.553C185.544 148.553 185.74 148.635 185.904 148.799C186.064 148.963 186.144 149.159 186.144 149.387C186.144 149.619 186.064 149.817 185.904 149.981C185.74 150.146 185.544 150.228 185.316 150.228C185.084 150.228 184.888 150.148 184.729 149.988ZM188.762 156.783H190.621V148.129H192.166V158H188.762V156.783ZM194.682 148.129H196.22V158H194.682V148.129ZM211.635 158V154.514C211.635 153.771 211.498 153.244 211.225 152.935C210.956 152.625 210.495 152.47 209.844 152.47C209.488 152.47 209.133 152.502 208.777 152.565V158H206.036C204.263 158 202.969 157.642 202.153 156.927C201.401 156.261 201.025 155.252 201.025 153.898C201.025 153.064 201.16 152.308 201.429 151.629L203.083 151.349C202.737 152.073 202.563 152.862 202.563 153.714C202.563 154.785 202.821 155.553 203.336 156.018C203.896 156.528 204.851 156.783 206.2 156.783H207.294V151.52C208.137 151.342 209.023 151.253 209.953 151.253C211.102 151.253 211.931 151.526 212.441 152.073C212.902 152.565 213.132 153.317 213.132 154.329V156.783H215.894V148.129H217.438V156.783H218.908V158H211.635ZM218.758 156.783H221.205C220.33 156.35 219.893 155.585 219.893 154.486C219.893 153.561 220.184 152.805 220.768 152.217C221.41 151.574 222.299 151.253 223.434 151.253C224.085 151.253 224.682 151.351 225.225 151.547L224.944 152.777C224.47 152.563 223.949 152.456 223.379 152.456C222.796 152.456 222.328 152.634 221.978 152.989C221.613 153.349 221.431 153.835 221.431 154.445C221.431 155.147 221.709 155.703 222.265 156.113C222.866 156.56 223.75 156.783 224.917 156.783H226.038V158H218.758V156.783ZM233.653 158C231.179 158 229.941 156.913 229.941 154.739C229.941 153.75 230.233 152.939 230.816 152.306C231.464 151.604 232.37 151.253 233.537 151.253C234.604 151.253 235.561 151.417 236.408 151.745V156.783H237.878V158H233.653ZM234.911 152.764C234.501 152.568 233.993 152.47 233.387 152.47C232.799 152.47 232.332 152.666 231.985 153.058C231.648 153.445 231.479 153.953 231.479 154.582C231.479 156.049 232.263 156.783 233.831 156.783H234.911V152.764ZM234.494 150.228C234.262 150.228 234.066 150.148 233.906 149.988C233.747 149.829 233.667 149.628 233.667 149.387C233.667 149.159 233.747 148.963 233.906 148.799C234.066 148.635 234.262 148.553 234.494 148.553C234.722 148.553 234.916 148.635 235.075 148.799C235.235 148.963 235.314 149.159 235.314 149.387C235.314 149.619 235.235 149.817 235.075 149.981C234.916 150.146 234.722 150.228 234.494 150.228ZM232.307 150.228C232.083 150.228 231.892 150.148 231.732 149.988C231.573 149.824 231.493 149.624 231.493 149.387C231.493 149.159 231.573 148.963 231.732 148.799C231.892 148.635 232.083 148.553 232.307 148.553C232.544 148.553 232.742 148.635 232.901 148.799C233.056 148.958 233.134 149.154 233.134 149.387C233.134 149.624 233.056 149.822 232.901 149.981C232.742 150.146 232.544 150.228 232.307 150.228ZM237.666 156.783H239.669V151.417H241.207V156.783H242.677V158H237.666V156.783ZM240.441 150.063C240.2 150.063 239.997 149.981 239.833 149.817C239.669 149.653 239.587 149.451 239.587 149.209C239.587 148.977 239.669 148.778 239.833 148.614C239.997 148.45 240.2 148.368 240.441 148.368C240.678 148.368 240.879 148.448 241.043 148.607C241.207 148.771 241.289 148.972 241.289 149.209C241.289 149.446 241.207 149.646 241.043 149.811C240.879 149.979 240.678 150.063 240.441 150.063ZM242.465 156.783H243.107C243.604 156.783 243.953 156.656 244.153 156.4C244.363 156.132 244.468 155.648 244.468 154.951V152.258H246.006V154.821C246.006 155.591 246.063 156.109 246.177 156.373C246.323 156.719 246.63 156.893 247.1 156.893C247.965 156.893 248.398 156.207 248.398 154.835V151.697H249.868V155.259C249.868 155.892 250.005 156.309 250.278 156.51C250.52 156.692 251.01 156.783 251.748 156.783H252.165C252.233 156.095 252.268 155.484 252.268 154.951C252.268 153.593 252.122 152.328 251.83 151.157L253.327 150.904C253.646 152.139 253.806 153.45 253.806 154.835C253.806 155.929 253.73 156.984 253.58 158H251.68C250.841 158 250.226 157.929 249.834 157.788C249.424 157.633 249.118 157.353 248.918 156.947C248.59 157.713 247.886 158.096 246.806 158.096C245.812 158.096 245.201 157.713 244.974 156.947C244.709 157.649 244.083 158 243.094 158H242.465V156.783ZM265.604 157.159C265.604 159.875 264.331 161.233 261.783 161.233C260.689 161.233 259.837 160.93 259.227 160.324C258.552 159.654 258.215 158.643 258.215 157.289C258.215 156.441 258.326 155.578 258.55 154.698L260.149 154.404C259.885 155.311 259.753 156.225 259.753 157.146C259.753 159.06 260.478 160.017 261.927 160.017C263.353 160.017 264.066 159.096 264.066 157.255V151.417H265.604V157.159ZM261.838 152.948C261.601 152.948 261.4 152.866 261.236 152.702C261.072 152.538 260.99 152.335 260.99 152.094C260.99 151.861 261.072 151.663 261.236 151.499C261.4 151.335 261.601 151.253 261.838 151.253C262.079 151.253 262.282 151.333 262.446 151.492C262.61 151.656 262.692 151.857 262.692 152.094C262.692 152.331 262.61 152.531 262.446 152.695C262.282 152.864 262.079 152.948 261.838 152.948ZM277.458 154.657C277.458 153.199 276.895 152.47 275.77 152.47C275.182 152.47 274.715 152.668 274.368 153.064C274.031 153.447 273.862 153.958 273.862 154.596C273.862 156.054 274.646 156.783 276.214 156.783H277.458V154.657ZM268.004 158V148.129H269.542V156.783H270.643C271.199 156.783 271.606 156.642 271.866 156.359C272.172 156.031 272.324 155.468 272.324 154.671C272.324 153.709 272.623 152.914 273.22 152.285C273.871 151.597 274.758 151.253 275.879 151.253C277.934 151.253 278.962 152.308 278.962 154.418V156.783H280.261V158H276.228C274.642 158 273.577 157.594 273.035 156.783C272.789 157.553 272.119 157.959 271.025 158H268.004ZM280.131 156.783H282.079V151.417H283.617V151.882C283.617 152.757 283.565 153.527 283.46 154.192H283.474C283.788 153.263 284.294 152.534 284.991 152.005C285.652 151.504 286.383 151.253 287.186 151.253C288.111 151.253 288.822 151.533 289.318 152.094C289.811 152.65 290.057 153.429 290.057 154.432C290.057 155.503 289.744 156.343 289.12 156.954C288.409 157.651 287.331 158 285.887 158H280.131V156.783ZM286.023 156.783C287.66 156.783 288.478 156.036 288.478 154.541C288.478 153.169 287.949 152.483 286.892 152.483C286.058 152.483 285.322 152.935 284.684 153.837C284.096 154.666 283.736 155.648 283.604 156.783H286.023ZM286.892 150.063C286.655 150.063 286.454 149.981 286.29 149.817C286.121 149.653 286.037 149.451 286.037 149.209C286.037 148.977 286.121 148.778 286.29 148.614C286.454 148.45 286.655 148.368 286.892 148.368C287.133 148.368 287.336 148.448 287.5 148.607C287.664 148.771 287.746 148.972 287.746 149.209C287.746 149.446 287.664 149.646 287.5 149.811C287.331 149.979 287.129 150.063 286.892 150.063ZM293.994 154.637V153.434H297.357V154.637H293.994ZM180.06 192.146C180.06 192.419 179.962 192.654 179.766 192.85C179.57 193.041 179.335 193.137 179.062 193.137C178.793 193.137 178.56 193.041 178.364 192.85C178.168 192.654 178.07 192.419 178.07 192.146C178.07 191.872 178.168 191.637 178.364 191.441C178.56 191.25 178.793 191.154 179.062 191.154C179.335 191.154 179.57 191.25 179.766 191.441C179.962 191.637 180.06 191.872 180.06 192.146ZM181.933 196.582C181.459 196.582 181.01 196.523 180.586 196.404L180.743 195.167C181.135 195.299 181.559 195.365 182.015 195.365C182.584 195.365 183.004 195.21 183.272 194.9C183.573 194.554 183.724 193.978 183.724 193.171V186.417H185.262V193.068C185.262 195.411 184.152 196.582 181.933 196.582ZM187.668 183.129H189.206V191.783H190.689V193H187.668V183.129ZM190.484 191.783H193.212V186.417H194.757V191.783H196.227V193H190.484V191.783ZM194.668 195.085C194.668 195.322 194.588 195.525 194.429 195.693C194.269 195.857 194.076 195.939 193.848 195.939C193.615 195.939 193.419 195.857 193.26 195.693C193.1 195.525 193.021 195.322 193.021 195.085C193.021 194.857 193.1 194.661 193.26 194.497C193.419 194.328 193.615 194.244 193.848 194.244C194.076 194.244 194.269 194.326 194.429 194.49C194.588 194.654 194.668 194.853 194.668 195.085ZM192.487 195.085C192.487 195.326 192.41 195.529 192.255 195.693C192.095 195.857 191.897 195.939 191.66 195.939C191.437 195.939 191.245 195.857 191.086 195.693C190.926 195.525 190.847 195.322 190.847 195.085C190.847 194.862 190.926 194.666 191.086 194.497C191.245 194.328 191.437 194.244 191.66 194.244C191.897 194.244 192.095 194.326 192.255 194.49C192.41 194.654 192.487 194.853 192.487 195.085ZM196.008 191.783H196.486C197.881 191.783 199.075 191.587 200.068 191.195C198.706 189.915 197.646 189.158 196.89 188.926L197.013 187.846C198.471 186.766 199.82 186.226 201.06 186.226C201.998 186.226 202.716 186.449 203.213 186.896C203.655 187.292 203.876 187.809 203.876 188.447C203.876 189.491 203.354 190.43 202.311 191.264C202.88 191.61 203.482 191.783 204.115 191.783H205.011V193H203.917C202.901 193 201.948 192.679 201.06 192.036C199.743 192.679 198.179 193 196.37 193H196.008V191.783ZM198.441 188.352C198.861 188.516 199.809 189.233 201.285 190.505C201.996 189.967 202.352 189.347 202.352 188.646C202.352 188.267 202.233 187.964 201.996 187.736C201.736 187.486 201.369 187.36 200.896 187.36C200.207 187.36 199.389 187.691 198.441 188.352ZM200.807 185.009C200.57 185.009 200.369 184.927 200.205 184.763C200.041 184.599 199.959 184.396 199.959 184.154C199.959 183.922 200.041 183.724 200.205 183.56C200.369 183.396 200.57 183.313 200.807 183.313C201.048 183.313 201.251 183.393 201.415 183.553C201.579 183.717 201.661 183.917 201.661 184.154C201.661 184.391 201.579 184.592 201.415 184.756C201.251 184.924 201.048 185.009 200.807 185.009ZM204.799 191.783H206.658V183.129H208.203V193H204.799V191.783ZM210.719 183.129H212.257V193H210.719V183.129ZM220.631 196.596C219.323 196.596 218.329 196.354 217.65 195.871C217.044 195.443 216.741 194.873 216.741 194.162C216.741 193.415 217.099 192.763 217.814 192.207C218.211 191.902 218.967 191.489 220.084 190.97C218.908 189.849 217.928 189.167 217.145 188.926L217.274 187.846C218.728 186.766 220.077 186.226 221.321 186.226C222.256 186.226 222.973 186.449 223.475 186.896C223.912 187.292 224.131 187.809 224.131 188.447C224.131 189.473 223.534 190.366 222.34 191.127C223.001 191.564 223.677 191.783 224.37 191.783H225.266V193H224.172C223.046 193 222.003 192.608 221.041 191.824C220.011 192.335 219.382 192.665 219.154 192.815C218.589 193.198 218.307 193.602 218.307 194.025C218.307 194.928 219.138 195.379 220.802 195.379C221.522 195.379 222.24 195.32 222.955 195.201L223.044 196.363C222.219 196.518 221.415 196.596 220.631 196.596ZM218.703 188.352C219.218 188.557 220.1 189.22 221.349 190.341C222.187 189.849 222.606 189.284 222.606 188.646C222.606 188.267 222.488 187.964 222.251 187.736C221.991 187.486 221.624 187.36 221.15 187.36C220.462 187.36 219.646 187.691 218.703 188.352ZM225.061 191.783H226.893V183.129H228.438V186.882C228.438 187.757 228.385 188.527 228.28 189.192H228.294C228.599 188.263 229.103 187.534 229.805 187.005C230.465 186.504 231.199 186.253 232.006 186.253C232.926 186.253 233.637 186.533 234.139 187.094C234.631 187.65 234.877 188.429 234.877 189.432C234.877 190.389 234.619 191.173 234.104 191.783H235.937V193H225.061V191.783ZM230.98 191.783C232.521 191.747 233.291 190.999 233.291 189.541C233.291 188.169 232.76 187.483 231.698 187.483C230.869 187.483 230.135 187.935 229.497 188.837C228.914 189.666 228.549 190.648 228.403 191.783H230.98ZM235.643 193V191.783H236.606C236.935 191.783 237.201 191.811 237.406 191.865C236.791 191.451 236.483 190.719 236.483 189.671C236.483 188.709 236.782 187.914 237.379 187.285C238.031 186.597 238.917 186.253 240.038 186.253C242.093 186.253 243.121 187.308 243.121 189.418V193H235.643ZM241.617 189.657C241.617 188.199 241.054 187.47 239.929 187.47C239.341 187.47 238.874 187.668 238.527 188.064C238.19 188.447 238.021 188.958 238.021 189.596C238.021 191.054 238.805 191.783 240.373 191.783H241.617V189.657ZM240.975 185.228C240.742 185.228 240.549 185.148 240.394 184.988C240.229 184.829 240.147 184.628 240.147 184.387C240.147 184.159 240.229 183.963 240.394 183.799C240.553 183.635 240.747 183.553 240.975 183.553C241.207 183.553 241.403 183.635 241.562 183.799C241.722 183.963 241.802 184.159 241.802 184.387C241.802 184.619 241.722 184.817 241.562 184.981C241.403 185.146 241.207 185.228 240.975 185.228ZM238.794 185.228C238.566 185.228 238.375 185.148 238.22 184.988C238.06 184.824 237.98 184.624 237.98 184.387C237.98 184.159 238.06 183.963 238.22 183.799C238.379 183.635 238.571 183.553 238.794 183.553C239.026 183.553 239.222 183.635 239.382 183.799C239.541 183.958 239.621 184.154 239.621 184.387C239.621 184.624 239.541 184.822 239.382 184.981C239.222 185.146 239.026 185.228 238.794 185.228ZM253.259 183.129H254.797V191.783H256.212V193H254.742C254.473 195.156 253.293 196.233 251.201 196.233C248.859 196.233 247.688 194.919 247.688 192.289C247.688 191.441 247.799 190.578 248.022 189.698L249.622 189.404C249.358 190.311 249.226 191.225 249.226 192.146C249.226 194.06 249.932 195.017 251.345 195.017C252.621 195.017 253.259 194.073 253.259 192.187V183.129ZM261.325 193C259.739 193 258.675 192.594 258.133 191.783C257.873 192.594 257.146 193 255.952 193H255.74V191.783C256.296 191.783 256.704 191.642 256.964 191.359C257.269 191.031 257.422 190.468 257.422 189.671C257.422 188.709 257.72 187.914 258.317 187.285C258.969 186.597 259.855 186.253 260.977 186.253C263.032 186.253 264.06 187.308 264.06 189.418V191.783H265.358V193H261.325ZM262.556 189.657C262.556 188.199 261.993 187.47 260.867 187.47C260.279 187.47 259.812 187.668 259.466 188.064C259.129 188.447 258.96 188.958 258.96 189.596C258.96 191.054 259.744 191.783 261.312 191.783H262.556V189.657ZM274.361 193C273.523 193 272.908 192.929 272.516 192.788C272.105 192.633 271.8 192.353 271.6 191.947C271.271 192.713 270.567 193.096 269.487 193.096C268.494 193.096 267.883 192.713 267.655 191.947C267.391 192.649 266.764 193 265.775 193H265.146V191.783H265.789C266.286 191.783 266.634 191.656 266.835 191.4C267.045 191.132 267.149 190.648 267.149 189.951V187.258H268.688V189.821C268.688 190.591 268.744 191.109 268.858 191.373C269.004 191.719 269.312 191.893 269.781 191.893C270.647 191.893 271.08 191.207 271.08 189.835V186.697H272.55V190.259C272.55 190.892 272.687 191.309 272.96 191.51C273.201 191.692 273.691 191.783 274.43 191.783H274.847C274.915 191.095 274.949 190.484 274.949 189.951C274.949 188.593 274.803 187.328 274.512 186.157L276.009 185.904C276.328 187.139 276.487 188.45 276.487 189.835C276.487 190.473 276.46 191.122 276.405 191.783H277.875V193H274.361ZM270.663 185.228C270.431 185.228 270.235 185.148 270.075 184.988C269.916 184.829 269.836 184.628 269.836 184.387C269.836 184.159 269.916 183.963 270.075 183.799C270.235 183.635 270.431 183.553 270.663 183.553C270.891 183.553 271.087 183.635 271.251 183.799C271.41 183.963 271.49 184.159 271.49 184.387C271.49 184.619 271.41 184.817 271.251 184.981C271.087 185.146 270.891 185.228 270.663 185.228ZM272.844 185.228C272.616 185.228 272.422 185.148 272.263 184.988C272.103 184.829 272.023 184.628 272.023 184.387C272.023 184.159 272.103 183.963 272.263 183.799C272.422 183.635 272.616 183.553 272.844 183.553C273.076 183.553 273.27 183.635 273.425 183.799C273.58 183.958 273.657 184.154 273.657 184.387C273.657 184.624 273.58 184.822 273.425 184.981C273.27 185.146 273.076 185.228 272.844 185.228ZM271.743 183.423C271.524 183.423 271.34 183.345 271.189 183.19C271.044 183.04 270.971 182.851 270.971 182.623C270.971 182.409 271.044 182.224 271.189 182.069C271.34 181.919 271.524 181.844 271.743 181.844C271.962 181.844 272.149 181.919 272.304 182.069C272.45 182.22 272.522 182.404 272.522 182.623C272.522 182.851 272.45 183.04 272.304 183.19C272.153 183.345 271.966 183.423 271.743 183.423ZM277.656 191.783H280.384V186.417H281.929V193H277.656V191.783ZM281.84 195.085C281.84 195.322 281.76 195.525 281.601 195.693C281.441 195.857 281.247 195.939 281.02 195.939C280.787 195.939 280.591 195.857 280.432 195.693C280.272 195.525 280.192 195.322 280.192 195.085C280.192 194.857 280.272 194.661 280.432 194.497C280.591 194.328 280.787 194.244 281.02 194.244C281.247 194.244 281.441 194.326 281.601 194.49C281.76 194.654 281.84 194.853 281.84 195.085ZM279.659 195.085C279.659 195.326 279.582 195.529 279.427 195.693C279.267 195.857 279.069 195.939 278.832 195.939C278.609 195.939 278.417 195.857 278.258 195.693C278.098 195.525 278.019 195.322 278.019 195.085C278.019 194.862 278.098 194.666 278.258 194.497C278.417 194.328 278.609 194.244 278.832 194.244C279.069 194.244 279.267 194.326 279.427 194.49C279.582 194.654 279.659 194.853 279.659 195.085ZM286.584 190.621H285.012L282.899 183.259L284.424 183.047L286.584 190.621ZM283.487 193V191.783H287.814V183.129H289.353V193H283.487ZM293.994 189.637V188.434H297.357V189.637H293.994Z" fill="black"/>
</svg>
