<svg width="251" height="57" viewBox="0 0 251 57" fill="none" xmlns="http://www.w3.org/2000/svg">
<path d="M77.2686 0.239433C75.3105 0.68699 74.3594 1.19049 72.5972 2.75694C71.667 3.607 70.9158 4.63404 70.3874 5.77795L69.5762 7.54021V29.0789L70.3874 30.7013C71.3664 32.6314 73.6881 34.8971 75.5063 35.7363C77.4084 36.6034 81.3245 36.6034 83.2267 35.7363C85.0449 34.8971 87.3666 32.6314 88.3456 30.7013L89.1568 29.0789V7.54021L88.2337 5.66606C86.1638 1.47021 81.6882 -0.76757 77.2686 0.239433ZM81.3805 6.56118C83.0309 7.56818 83.0588 7.76398 83.1707 17.89C83.2826 26.7572 83.2546 27.1768 82.6952 28.2117C81.2966 30.8971 77.4923 31.009 76.0937 28.3796C75.6462 27.4845 75.5902 26.5893 75.5902 18.0298C75.5902 9.13463 75.6182 8.60316 76.1497 7.73602C77.1567 6.08565 79.6742 5.49823 81.3805 6.56118Z" fill="#D1B227"/>
<path d="M196.151 0.239433C194.193 0.68699 193.242 1.19049 191.48 2.75694C190.549 3.60699 189.798 4.63403 189.27 5.77795L188.458 7.54021V29.0789L189.242 30.6453C190.165 32.5195 192.542 34.8971 194.389 35.7363C196.291 36.6034 200.207 36.6034 202.109 35.7363C204.067 34.8412 206.277 32.6034 207.228 30.5334L208.039 28.7992V7.54021L207.116 5.66606C205.046 1.47021 200.571 -0.76757 196.151 0.239433ZM200.067 6.42131C200.607 6.75454 201.065 7.20362 201.41 7.73602C201.941 8.60316 201.969 9.21854 202.053 17.89C202.165 26.7292 202.137 27.1768 201.578 28.2117C200.179 30.8971 196.375 31.009 194.976 28.3796C194.528 27.4845 194.473 26.5893 194.473 18.0578C194.473 9.07868 194.501 8.68707 195.06 7.79196C195.394 7.24537 195.842 6.77774 196.375 6.42131C197.354 5.88984 199.06 5.88984 200.067 6.42131Z" fill="#D1B227"/>
<path d="M169.129 0.574251C168.129 1.03556 167.19 1.61802 166.332 2.30853C162.612 5.30157 161.633 10.3086 163.787 15.0639C164.794 17.2737 166.528 18.7562 171.004 21.2738C176.346 24.2668 177.157 25.2738 176.122 27.7633C175.815 28.4626 175.255 29.2738 174.864 29.5536C174.287 29.9472 173.62 30.1872 172.925 30.2508C172.23 30.3145 171.53 30.1996 170.892 29.9172C169.437 29.2179 168.934 28.2948 168.738 25.8612L168.598 23.7633H162.724V26.2808C162.752 29.5815 163.619 31.6515 165.913 33.7494C168.178 35.8194 169.465 36.3228 172.514 36.3508C174.668 36.3508 175.255 36.2389 176.57 35.6235C178.864 34.5326 180.346 33.106 181.381 30.9522C182.248 29.2179 182.304 28.8822 182.304 26.2808C182.304 23.8752 182.22 23.3157 181.633 22.2248C180.598 20.2388 178.584 18.5604 174.724 16.4905C172.766 15.4275 170.808 14.2527 170.332 13.8611C168.038 11.931 168.262 7.67921 170.696 6.42046C172.542 5.4694 174.948 6.16871 175.843 7.90299C176.067 8.32257 176.318 9.94497 176.43 11.5394L176.654 14.3926H182.5L182.388 10.952C182.304 7.87502 182.22 7.37152 181.493 5.7771C180.458 3.56729 178.304 1.52531 176.15 0.714113C174.304 0.0148051 170.892 -0.0411395 169.129 0.574251Z" fill="#D1B227"/>
<path d="M17.1281 5.4705C17.1281 8.2957 17.0442 16.3238 16.9603 23.2609L16.7925 35.9323H23.0023L23.0583 29.4148L23.1422 22.9252L26.359 22.7574C28.7087 22.6455 29.9115 22.4497 30.8346 22.0301C37.436 19.065 39.3102 8.2957 34.1073 3.12083C31.9255 0.938988 30.6388 0.60332 23.366 0.463459L17.1281 0.351562V5.4705ZM29.4639 7.31667C31.7017 9.21879 31.7017 13.3027 29.436 15.5685L28.373 16.6314H23.0023V6.56142H25.7716C28.373 6.56142 28.5968 6.61737 29.4639 7.31667Z" fill="#D1B227"/>
<path d="M43.1423 5.49721C43.1423 8.32242 43.0864 16.3225 42.9745 23.2596L42.8066 35.9311H49.0165V20.826H51.3941C54.1634 20.826 55.0305 21.1617 56.2054 22.7002L56.9886 23.7072L57.0725 29.8331L57.1564 35.9311H63.3663L63.1705 29.4695C62.9467 22.5044 62.8068 21.7491 61.2684 19.3435L60.4012 18.0008L61.1285 17.2456C61.7084 16.5341 62.2145 15.7656 62.639 14.9518C63.3383 13.5532 63.4222 13.1336 63.4222 10.6161C63.4222 8.09863 63.3383 7.65108 62.611 6.19652C61.2124 3.31537 58.4991 1.30136 55.1984 0.685973C54.3872 0.546112 51.3102 0.40625 48.4291 0.40625H43.1423V5.49721ZM55.2823 6.95177C55.7765 7.17169 56.2194 7.49215 56.5829 7.89272C56.9464 8.29329 57.2225 8.76519 57.3936 9.27835C57.5646 9.7915 57.6269 10.3347 57.5764 10.8732C57.526 11.4118 57.3639 11.9339 57.1005 12.4064C56.1215 14.1406 54.7228 14.7281 51.6459 14.6162L49.1564 14.5323L49.0724 10.5322L48.9885 6.56016H51.6739C53.3242 6.56016 54.6949 6.70002 55.2823 6.95177Z" fill="#D1B227"/>
<path d="M96.2056 0.601935C96.0937 0.685852 96.0098 8.68593 96.0098 18.3643V35.931H102.164L102.22 22.8679L102.304 9.80482L104.821 13.4972C106.22 15.5112 107.394 17.1895 107.478 17.1895C107.562 17.1895 108.737 15.5671 110.108 13.5531C111.478 11.5671 112.709 10.0006 112.821 10.0845C112.933 10.1405 113.045 14.1965 113.045 19.0916C113.045 23.9588 113.073 29.7491 113.073 31.9309V35.931H118.947L118.891 18.2245L118.807 0.545987L115.758 0.462074C113.744 0.406129 112.597 0.490044 112.346 0.713823C112.122 0.909629 111.003 2.42013 109.828 4.0705C108.681 5.74884 107.618 7.11948 107.478 7.11948C107.339 7.11948 106.387 5.8887 105.353 4.3782C102.415 0.126406 102.835 0.406126 99.3664 0.406126C97.7161 0.406126 96.2895 0.490046 96.2056 0.601935Z" fill="#D1B227"/>
<path d="M130.836 0.685558C130.668 0.937308 129.997 4.3779 128.738 11.4549C128.598 12.2101 127.983 15.6787 127.339 19.1473C126.724 22.6158 125.829 27.5669 125.381 30.1963C124.906 32.7978 124.486 35.1754 124.43 35.4272C124.318 35.8747 124.598 35.9307 127.339 35.9307H130.36L130.556 34.4481C130.892 31.8187 130.584 32.0145 134.472 32.0145C138.36 32.0145 138.053 31.8187 138.388 34.4481L138.584 35.9307H141.661C144.43 35.9307 144.71 35.8747 144.57 35.4272C144.486 35.1754 144.039 32.7418 143.591 30.0565C140.626 12.8815 138.5 0.881362 138.36 0.657584C138.137 0.293944 131.06 0.321918 130.836 0.685558ZM135.843 18.448C136.402 22.2802 136.85 25.7208 136.85 26.0564C136.85 26.6718 136.738 26.6998 134.472 26.6998C132.178 26.6998 132.095 26.6718 132.095 26.0564C132.095 25.7208 132.598 22.3641 133.213 18.5878C133.829 14.8116 134.332 11.5388 134.332 11.315C134.332 11.0913 134.416 11.0353 134.584 11.1752C134.696 11.343 135.283 14.5878 135.843 18.448Z" fill="#D1B227"/>
<path d="M150.752 0.575102C150.64 0.686991 150.556 8.68707 150.556 18.3655V35.9321H156.71L156.654 18.2256L156.57 0.547128L153.745 0.463214C152.207 0.435242 150.864 0.463213 150.752 0.575102Z" fill="#D1B227"/>
<path d="M215.088 0.574716C214.976 0.686605 214.892 8.68668 214.892 18.3651V35.9317H220.794L220.626 26.7568C220.487 20.3791 220.515 17.6938 220.71 17.8896C220.878 18.0294 222.64 21.6938 224.654 26.0015C226.668 30.3093 228.543 34.2813 228.85 34.8128L229.382 35.7918L231.62 35.8758L233.885 35.9597L233.969 31.6799C234.025 29.3302 233.997 21.3581 233.913 13.9734L233.773 0.546742L231.032 0.462828L228.291 0.378906L228.375 10.1972C228.431 15.5679 228.375 19.9875 228.291 19.9875C228.207 19.9875 226.864 16.9945 225.298 13.3301C223.731 9.69368 221.857 5.30203 221.102 3.6237L219.731 0.546742L217.521 0.462828C216.291 0.434856 215.2 0.462827 215.088 0.574716Z" fill="#D1B227"/>
<path d="M63.1983 48.4059C62.7507 48.8534 63.0025 49.6366 63.5899 49.6366C64.0095 49.6366 64.1493 49.4968 64.0654 49.0213C63.9815 48.4059 63.5339 48.0982 63.1983 48.4059Z" fill="#D1B227"/>
<path d="M232.347 48.6584C232.151 49.1619 232.431 49.6374 232.934 49.6374C233.522 49.6374 233.718 49.1059 233.354 48.6584C232.906 48.1269 232.543 48.1269 232.347 48.6584Z" fill="#D1B227"/>
<path d="M0.00912821 48.6874C-0.0747887 48.7713 0.428713 50.6175 1.15599 52.7993C2.38678 56.4637 2.55461 56.7714 3.22594 56.8553C3.92525 56.9392 3.9812 56.7993 5.21198 53.0231C5.91129 50.8692 6.4987 48.9671 6.4987 48.8272C6.4987 48.6594 6.24695 48.5195 5.93926 48.5195C5.26792 48.5195 5.12806 48.8272 4.03714 52.4357L3.22594 55.093L2.30286 52.1559C1.79936 50.5335 1.26788 49.051 1.10005 48.8552C0.820324 48.4916 0.260879 48.4076 0.00912821 48.6874Z" fill="#D1B227"/>
<path d="M124.038 50.0588C123.87 50.4504 123.591 50.7581 123.423 50.7581C123.283 50.7581 123.143 50.9539 123.143 51.1776C123.143 51.4014 123.255 51.5972 123.395 51.5972C123.535 51.5972 123.675 52.6042 123.758 53.807C123.842 55.0378 124.038 56.2406 124.262 56.4644C124.458 56.7441 125.045 56.912 125.689 56.912C126.612 56.912 126.779 56.8281 126.779 56.3246C126.779 55.905 126.668 55.7931 126.332 55.905C125.465 56.2406 125.101 55.5413 125.101 53.5273V51.5972H125.94C127.031 51.5972 127.087 50.842 126.024 50.7021C125.465 50.6462 125.213 50.4504 125.157 49.9748C125.045 49.1636 124.43 49.1916 124.038 50.0588Z" fill="#D1B227"/>
<path d="M153.717 49.8344C153.556 50.2216 153.295 50.5593 152.962 50.8135C152.43 51.233 152.43 51.289 152.878 51.4568C153.269 51.6247 153.353 52.0163 153.353 53.6666C153.353 56.2401 153.801 56.9674 155.255 56.8555C155.955 56.7995 156.29 56.6317 156.29 56.352C156.295 56.3016 156.288 56.2508 156.269 56.2038C156.25 56.1568 156.22 56.1151 156.182 56.0821C156.143 56.0492 156.098 56.026 156.048 56.0145C155.999 56.0031 155.948 56.0037 155.899 56.0163C155.087 56.1841 154.752 55.4569 154.752 53.5268C154.752 51.6806 154.78 51.6247 155.507 51.5407C156.514 51.4288 156.654 50.8135 155.675 50.7016C155.115 50.6456 154.864 50.4498 154.808 49.9743C154.696 49.247 153.969 49.1351 153.717 49.8344Z" fill="#D1B227"/>
<path d="M10.3588 50.9527C8.79232 51.9317 8.59651 55.0646 9.99513 56.2674C10.7784 56.9667 12.2889 57.1066 13.2399 56.631C14.7504 55.8198 15.0301 52.7429 13.7154 51.4282C12.8203 50.5331 11.3378 50.3093 10.3588 50.9527ZM12.7084 52.0716C13.4357 52.7149 13.4077 54.7569 12.6525 55.5122C12.3448 55.8198 11.9812 56.0716 11.8133 56.0716C11.114 56.0716 10.4147 54.9247 10.4147 53.7779C10.4147 51.9317 11.5895 51.0366 12.7084 52.0716Z" fill="#D1B227"/>
<path d="M19.0021 50.9251C17.8553 51.5405 18.0231 52.8832 19.3658 53.7503C21.5196 55.121 21.5196 55.121 20.9882 55.6804C20.5686 56.128 20.3168 56.156 19.3658 55.8762C18.2748 55.5965 18.2189 55.6245 18.3028 56.1839C18.3867 56.6874 18.6105 56.7993 19.7294 56.8553C21.6315 56.9672 22.4987 56.3797 22.3868 55.0371C22.3029 54.114 22.163 53.9462 20.9882 53.3587C20.0371 52.8832 19.6455 52.5196 19.6455 52.1C19.6455 51.5685 19.7574 51.5405 20.8763 51.6524C22.3588 51.8203 22.9182 51.2049 21.7154 50.7573C21.2836 50.5627 20.8108 50.4763 20.338 50.5056C19.8652 50.5348 19.4067 50.6788 19.0021 50.9251Z" fill="#D1B227"/>
<path d="M31.9538 50.8424C31.4223 51.1222 31.2545 51.4019 31.2545 52.1571C31.2545 52.9404 31.4223 53.2201 32.2335 53.7515C34.3874 55.1222 34.3874 55.1222 33.8559 55.6816C33.4364 56.1292 33.1846 56.1572 32.2335 55.8774C31.1426 55.5977 31.0867 55.6257 31.1706 56.1851C31.2545 56.6886 31.4783 56.8005 32.5972 56.8565C34.3035 56.9684 35.3105 56.3809 35.3105 55.29C35.3105 54.283 35.0867 54.0033 33.7161 53.304C32.8769 52.8844 32.5133 52.5208 32.5133 52.1012C32.5133 51.5697 32.6252 51.5417 33.744 51.6536C34.6671 51.7655 35.0308 51.7096 35.1427 51.4019C35.4504 50.6187 33.2126 50.1991 31.9538 50.8424Z" fill="#D1B227"/>
<path d="M40.4853 50.8678C39.4503 51.3153 38.9468 52.3503 38.9468 54.0007C38.9468 55.0357 39.1146 55.4273 39.7859 56.0986C40.5132 56.8539 40.765 56.9378 42.0797 56.8539C43.2545 56.7979 43.5902 56.658 43.6461 56.2385C43.758 55.7909 43.6461 55.735 42.723 55.9028C41.5202 56.1266 40.3454 55.5392 40.3454 54.672C40.3454 54.1965 40.5692 54.1405 42.2475 54.0566L44.1217 53.9727L44.0377 52.9937C44.0152 52.5857 43.893 52.1894 43.6817 51.8396C43.4705 51.4898 43.1767 51.1972 42.826 50.9874C42.4754 50.7775 42.0786 50.6569 41.6705 50.6361C41.2624 50.6152 40.8555 50.6948 40.4853 50.8678ZM42.5832 52.1265C43.0028 52.9657 42.9748 52.9937 41.6041 52.9937C40.765 52.9937 40.3454 52.8818 40.3454 52.63C40.3454 51.5951 42.0797 51.2034 42.5832 52.1265Z" fill="#D1B227"/>
<path d="M49.8835 50.9528C49.38 51.2885 49.1562 51.3164 49.0723 51.0926C49.0106 50.9791 48.9164 50.8865 48.8018 50.8267C48.6872 50.7669 48.5574 50.7426 48.4289 50.757C47.9254 50.757 47.8975 50.9808 47.8975 53.8339C47.8975 56.7151 47.9254 56.9109 48.4569 56.9109C48.9604 56.9109 49.0164 56.7151 49.0443 55.2885C49.0723 52.9668 49.324 52.3514 50.415 51.8199C51.422 51.2885 51.7017 50.6731 50.9744 50.5332C50.576 50.5564 50.1948 50.7031 49.8835 50.9528Z" fill="#D1B227"/>
<path d="M69.5481 50.757C68.5131 51.1766 68.0376 52.1556 68.0376 53.9179C68.0376 55.2885 68.1495 55.6522 68.7369 56.2396C69.3243 56.827 69.66 56.9389 70.7509 56.855C71.7859 56.799 72.1216 56.6592 72.1775 56.2676C72.2614 55.848 72.0936 55.792 71.2544 55.848C69.7999 55.9319 69.0446 55.0088 69.2404 53.4424C69.4362 52.1277 70.0796 51.5402 71.2544 51.6521C71.8418 51.7081 72.1216 51.5962 72.1775 51.2885C72.3174 50.5892 70.7509 50.2535 69.5481 50.757Z" fill="#D1B227"/>
<path d="M77.353 50.7576C75.6467 51.4569 75.1712 54.8975 76.5978 56.2122C77.6887 57.2192 80.6258 57.1633 80.6258 56.1563C80.6258 55.8206 80.402 55.7647 79.5349 55.9045C78.6957 56.0164 78.3041 55.9325 77.7167 55.4849C76.4859 54.5059 76.7656 54.1423 78.8915 54.0584L80.7657 53.9744L80.7377 52.9115C80.7296 52.3247 80.5336 51.7561 80.1782 51.2891C79.5349 50.6737 78.1922 50.394 77.353 50.7576ZM79.3391 52.2122C79.7307 52.8835 79.4789 53.0513 78.1363 52.9395C76.9894 52.8555 76.9894 52.8555 77.437 52.2122C77.5341 52.0461 77.673 51.9084 77.8398 51.8127C78.0067 51.717 78.1957 51.6667 78.388 51.6667C78.5804 51.6667 78.7694 51.717 78.9362 51.8127C79.1031 51.9084 79.2419 52.0461 79.3391 52.2122Z" fill="#D1B227"/>
<path d="M85.4086 50.8411C83.7862 51.6802 84.01 53.1348 85.9401 54.1138C87.982 55.1488 87.6743 56.2118 85.4645 55.9041C84.5135 55.7642 84.2617 55.8201 84.2617 56.1558C84.2617 56.6873 84.8491 56.9111 86.3037 56.9111C87.6464 56.9111 87.9541 56.7432 88.4296 55.8761C88.9331 54.8971 88.3736 53.918 86.9191 53.2187C86.0799 52.7991 85.6603 52.4355 85.6603 52.0719C85.6603 51.6243 85.8282 51.5684 86.975 51.6523C88.4576 51.7642 88.9611 51.2047 87.7583 50.7572C86.8072 50.3935 86.2198 50.4215 85.4086 50.8411Z" fill="#D1B227"/>
<path d="M98.4437 50.8128C96.8772 51.3723 97.2129 53.1625 99.087 54.1136C100.402 54.7849 100.653 55.1206 100.178 55.68C99.8982 56.0157 99.5346 56.0716 98.6115 55.9318C97.6604 55.7919 97.4087 55.8478 97.4087 56.1555C97.4087 56.687 98.0241 56.9108 99.4786 56.9108C100.989 56.9108 101.688 56.2395 101.549 54.8968C101.465 54.1136 101.269 53.8618 100.15 53.2744C99.2828 52.8268 98.8073 52.3793 98.8073 52.0716C98.8073 51.624 99.0031 51.5681 100.122 51.652C101.605 51.7639 102.108 51.2044 100.905 50.7569C100.01 50.4212 99.4786 50.4212 98.4437 50.8128Z" fill="#D1B227"/>
<path d="M106.444 50.9244C105.045 51.6238 104.514 53.8615 105.381 55.5119C105.885 56.4909 106.584 56.9105 107.759 56.9105C109.633 56.9105 110.724 55.4839 110.472 53.3301C110.22 51.1203 108.318 49.9734 106.444 50.9244ZM108.654 52.0713C109.381 52.7147 109.353 54.7567 108.598 55.5119C108.29 55.8196 107.927 56.0713 107.759 56.0713C107.059 56.0713 106.36 54.9245 106.36 53.7776C106.36 51.9314 107.535 51.0363 108.654 52.0713Z" fill="#D1B227"/>
<path d="M116.094 50.8704C115.646 51.0942 115.311 51.1781 115.311 51.0103C115.311 50.8704 115.059 50.7585 114.751 50.7585C114.22 50.7585 114.192 50.9543 114.192 53.8355V56.9124H114.891C115.563 56.9124 115.591 56.8565 115.591 54.7865C115.591 52.3809 115.898 51.5977 116.793 51.5977C117.884 51.5977 118.108 52.1292 118.108 54.5907C118.108 56.9124 118.108 56.9124 118.835 56.9124H119.563L119.451 54.2551C119.395 52.3809 119.255 51.4858 118.947 51.2061C118.304 50.5627 116.961 50.3949 116.094 50.8704Z" fill="#D1B227"/>
<path d="M136.71 50.8678C135.675 51.3153 135.171 52.3503 135.171 54.0007C135.171 55.0357 135.339 55.4273 136.011 56.0986C136.738 56.8539 136.99 56.9378 138.304 56.8539C139.479 56.7979 139.815 56.658 139.871 56.2385C139.983 55.7909 139.871 55.735 138.948 55.9028C137.745 56.1266 136.57 55.5392 136.57 54.672C136.57 54.1965 136.794 54.1405 138.472 54.0566L140.346 53.9727L140.262 52.9937C140.24 52.5857 140.118 52.1894 139.906 51.8396C139.695 51.4898 139.401 51.1972 139.051 50.9874C138.7 50.7775 138.303 50.6569 137.895 50.6361C137.487 50.6152 137.08 50.6948 136.71 50.8678ZM138.808 52.1265C139.227 52.9657 139.199 52.9937 137.829 52.9937C136.99 52.9937 136.57 52.8818 136.57 52.63C136.57 51.5951 138.304 51.2034 138.808 52.1265Z" fill="#D1B227"/>
<path d="M144.486 50.6727C144.234 50.7566 144.123 51.6797 144.123 53.8615C144.123 56.6587 144.179 56.9105 144.654 56.9105C145.102 56.9105 145.186 56.6028 145.325 54.6727C145.493 52.2391 145.801 51.5958 146.808 51.5958C147.731 51.5958 148.039 52.379 148.039 54.7846C148.039 56.7147 148.095 56.9105 148.598 56.9105C149.13 56.9105 149.158 56.7147 149.158 54.2811C149.158 52.2391 149.046 51.5398 148.71 51.2041C148.373 50.8638 147.934 50.6417 147.46 50.5711C146.986 50.5005 146.502 50.5852 146.081 50.8125C145.493 51.1482 145.269 51.1762 145.074 50.8964C145.012 50.8017 144.922 50.729 144.816 50.6888C144.711 50.6486 144.595 50.6429 144.486 50.6727Z" fill="#D1B227"/>
<path d="M161.969 50.8699C161.521 51.1217 161.129 51.1776 161.045 51.0098C160.969 50.9306 160.878 50.8675 160.777 50.8243C160.676 50.781 160.568 50.7585 160.458 50.7581C160.15 50.7581 160.066 51.3455 160.066 53.835C160.066 56.7162 160.094 56.912 160.626 56.912C161.129 56.912 161.185 56.7162 161.185 55.2616C161.185 53.1357 161.521 52.2406 162.5 51.821C163.367 51.4294 163.731 51.0378 163.535 50.7021C163.339 50.3664 162.808 50.4224 161.969 50.8699Z" fill="#D1B227"/>
<path d="M168.011 50.7576C167.032 51.1492 166.5 52.1562 166.5 53.6108C166.5 55.9325 167.368 56.9115 169.438 56.9115C170.668 56.9115 171.256 56.6598 171.256 56.1563C171.256 55.7926 171.032 55.7647 170.137 55.9045C169.158 56.0444 168.906 55.9884 168.319 55.401C167.228 54.3101 167.424 54.1143 169.605 54.1143H171.619L171.452 52.9674C171.381 52.3583 171.149 51.7791 170.78 51.2891C170.165 50.6737 168.822 50.394 168.011 50.7576ZM169.969 52.0443C170.277 52.8555 170.137 52.9954 169.018 52.9954C168.291 52.9954 167.899 52.8555 167.899 52.6318C167.899 51.6807 169.633 51.1772 169.969 52.0443Z" fill="#D1B227"/>
<path d="M190.389 50.7572C189.046 51.2887 188.319 53.3866 188.878 55.065C189.298 56.3237 190.109 56.9112 191.452 56.9112C192.962 56.9112 193.941 55.9881 194.109 54.3097C194.417 51.5684 192.627 49.8621 190.389 50.7572ZM192.347 52.044C192.627 52.3237 192.795 52.9671 192.795 53.8342C192.795 54.9251 192.683 55.2888 192.179 55.6244C191.368 56.1839 191.228 56.1839 190.557 55.5125C189.494 54.4496 190.081 51.5964 191.396 51.5964C191.756 51.6268 192.094 51.7856 192.347 52.044Z" fill="#D1B227"/>
<path d="M198.584 50.8128C197.018 51.3723 197.354 53.1625 199.228 54.1136C200.542 54.7849 200.794 55.1206 200.319 55.68C200.039 56.0157 199.675 56.0716 198.752 55.9318C197.801 55.7919 197.549 55.8478 197.549 56.1555C197.549 56.687 198.165 56.9108 199.619 56.9108C201.13 56.9108 201.829 56.2395 201.689 54.8968C201.605 54.1136 201.409 53.8618 200.291 53.2744C199.423 52.8268 198.948 52.3793 198.948 52.0716C198.948 51.624 199.144 51.5681 200.263 51.652C201.745 51.7639 202.249 51.2044 201.046 50.7569C200.151 50.4212 199.619 50.4212 198.584 50.8128Z" fill="#D1B227"/>
<path d="M211.34 50.6743C211.088 50.7582 210.976 51.6813 210.976 53.8631V56.9121H211.675C212.347 56.9121 212.375 56.8562 212.375 54.7862C212.375 52.4925 212.682 51.5974 213.438 51.5974C214.389 51.5974 214.612 52.2128 214.612 54.5904C214.612 56.8841 214.612 56.9121 215.312 56.9121C216.011 56.9121 216.011 56.8841 216.011 54.7023C216.011 52.3247 216.347 51.5974 217.438 51.5974C218.193 51.5974 218.529 52.6323 218.529 54.982C218.529 56.7163 218.585 56.9121 219.088 56.9121C219.62 56.9121 219.647 56.7163 219.647 54.2827C219.647 52.2407 219.536 51.5414 219.2 51.2058C218.529 50.5065 217.522 50.3946 216.571 50.8701C215.759 51.2617 215.619 51.2617 215.004 50.8421C214.417 50.4785 214.109 50.4505 213.298 50.7023C212.738 50.8701 212.123 50.926 211.983 50.7862C211.891 50.7216 211.785 50.6782 211.674 50.6589C211.563 50.6395 211.449 50.6448 211.34 50.6743Z" fill="#D1B227"/>
<path d="M224.682 50.7303C223.535 51.066 223.787 51.7653 225.046 51.6534C227.032 51.4576 227.675 52.8282 225.745 53.1359C223.955 53.4156 223.284 53.9471 223.284 55.094C223.284 55.5975 223.479 56.2408 223.731 56.4646C224.235 56.9961 225.577 57.052 226.417 56.6045C226.836 56.3807 227.032 56.3807 227.2 56.6324C227.282 56.7336 227.394 56.8048 227.521 56.8352C227.647 56.8655 227.78 56.8533 227.899 56.8003C228.319 56.6604 228.375 56.2968 228.263 54.1149C228.179 52.3527 228.011 51.4576 227.731 51.1499C227.228 50.6464 225.661 50.4226 224.682 50.7303ZM226.92 54.3387C226.92 55.1779 226.081 56.101 225.438 56.0171C224.514 55.8772 224.431 54.4786 225.298 54.1429C226.333 53.7233 226.92 53.7793 226.92 54.3387Z" fill="#D1B227"/>
<path d="M239.732 50.8698C239.284 51.0936 238.948 51.1775 238.948 51.0097C238.948 50.8698 238.697 50.7579 238.389 50.7579C237.858 50.7579 237.83 50.9537 237.83 53.8629C237.83 56.9118 237.83 56.9398 238.473 56.8559C239.032 56.772 239.088 56.6041 239.228 54.5342C239.396 51.9887 239.564 51.5971 240.487 51.5971C241.438 51.5971 241.746 52.3524 241.746 54.8139C241.746 56.8559 241.774 56.9398 242.389 56.8559C242.949 56.772 243.004 56.6041 243.088 55.0377C243.2 52.688 242.781 51.2055 241.886 50.8139C240.962 50.3943 240.655 50.3943 239.732 50.8698Z" fill="#D1B227"/>
<path d="M247.62 50.8409C246.194 51.5682 246.529 53.1906 248.319 54.0578C250.361 55.0368 249.886 56.5193 247.732 55.848C246.809 55.5683 246.753 55.5962 246.837 56.1557C246.921 56.6871 247.117 56.7711 248.375 56.855C249.55 56.9109 249.942 56.827 250.389 56.3795C251.564 55.2046 251.061 54.1976 248.739 52.9109C247.508 52.2395 247.788 51.736 249.41 51.792C250.473 51.82 250.697 51.736 250.697 51.3165C250.697 50.9808 250.417 50.757 249.83 50.6451C248.627 50.4213 248.431 50.4214 247.62 50.8409Z" fill="#D1B227"/>
<path d="M54.0513 50.9517C54.0792 51.0915 54.5548 52.4342 55.1142 53.9727C56.0373 56.4902 56.2331 56.7699 56.8485 56.7699C57.4639 56.7699 57.6597 56.4902 58.5828 53.9727C59.1702 52.4342 59.6457 51.0915 59.6457 50.9796C59.6457 50.8398 59.338 50.7559 58.9744 50.7559C58.387 50.7559 58.2471 51.0076 57.6877 52.9936C57.324 54.1965 56.9604 55.1475 56.8485 55.0916C56.7646 55.0356 56.373 54.0286 56.0093 52.8818C55.4499 51.0356 55.2541 50.7559 54.6946 50.7559C54.331 50.7559 54.0513 50.8398 54.0513 50.9517Z" fill="#D1B227"/>
<path d="M63.0024 53.8328C63.0024 56.714 63.0304 56.9098 63.5619 56.9098C64.0934 56.9098 64.1213 56.714 64.1213 53.8328C64.1213 50.9517 64.0934 50.7559 63.5619 50.7559C63.0304 50.7559 63.0024 50.9517 63.0024 53.8328Z" fill="#D1B227"/>
<path d="M180.207 50.9532C180.207 51.0651 180.655 52.4637 181.214 54.0582C182.193 56.7435 182.305 56.9393 182.948 56.8554C183.592 56.7715 183.787 56.4358 184.739 53.8344C185.326 52.212 185.801 50.8693 185.801 50.8134C185.582 50.7604 185.355 50.7415 185.13 50.7574C184.543 50.7574 184.375 51.0092 183.843 52.6316C183.508 53.6945 183.172 54.7295 183.088 54.9533C183.004 55.177 182.613 54.3938 182.193 53.1351C181.578 51.3448 181.298 50.8693 180.822 50.8134C180.487 50.7574 180.207 50.8134 180.207 50.9532Z" fill="#D1B227"/>
<path d="M232.235 53.8608C232.235 56.9098 232.235 56.9377 232.879 56.8538C233.466 56.7699 233.494 56.63 233.578 53.7489L233.662 50.7559H232.235V53.8608Z" fill="#D1B227"/>
</svg>
